<svg xmlns="http://www.w3.org/2000/svg" width="196.481" height="225.456" viewBox="0 0 196.481 225.456"><path fill="none" d="M113.821 24.664c1.271 2.525.833 4.368.837 6.133.035 23.484.064 46.97-.028 70.455-.011 2.805.352 4.003 3.691 4.124 4.052.148 3.671-2.019 3.669-4.613-.029-26.983-.021-53.966-.005-80.948.002-2.286-.151-4.438 1.584-6.544 3.882-4.707 3.871-8.43.557-11.373-3.44-3.057-7.238-2.472-11.642 2.14-24.233 25.372-38.67 55.407-42.861 90.307-1.336 11.124-1.381 10.986 9.78 10.955 3.052-.008 3.879-.876 4.086-3.862.891-12.851 3.617-25.353 8.085-37.443 5.217-14.117 12.263-27.203 22.247-39.331zm.627 176.661c-2.072-2.431-3.354-3.734-4.407-5.201-14.261-19.852-23.092-41.864-25.985-66.165-1.149-9.657-.992-9.541-10.896-9.65-3.348-.037-4.985.512-4.222 4.318.587 2.924.555 5.966.965 8.933 4.733 34.261 19.217 63.773 43.307 88.563 3.855 3.967 7.653 4.343 10.935 1.396 3.134-2.815 3.306-6.647.021-10.594-1.747-2.099-2.234-4.232-2.228-6.841.059-27.16.022-54.32.049-81.48.003-2.427.312-4.376-3.419-4.372-3.593.005-3.95 1.416-3.938 4.389.096 23.327.056 46.655.043 69.982-.002 1.776-.116 3.552-.225 6.722zM22.651 98.899c-7.164 4.116-14.045 8.109-20.968 12.026-2.619 1.481-1.894 2.532.209 3.728 5.493 3.121 10.951 6.307 16.422 9.466 5.108 2.949 5.433 2.926 5.043-2.764-.296-4.312 1.184-5.128 5.236-5.095 24.646.199 49.294.124 73.941.092 21.979-.03 43.957-.064 65.935-.283 2.188-.021 3.636.797 4.722 2.155 6.214 7.768 14.493 4.974 23.289 5.329-1.859-2.144-2.948-3.354-3.988-4.604-6.142-7.381-5.988-5.152-.169-12.303 1.103-1.354 2.769-2.312 3.384-5.011-6.651 1.252-13.709-2.529-19.182 2.937-3.892 3.888-8.053 4.638-13.292 4.612-43.132-.204-86.266-.107-129.398-.129-3.311-.002-7.227.799-9.704-.695-1.468-.885-.66-5.538-.891-8.496-.009-.142-.159-.274-.589-.965z"/><path fill-rule="evenodd" clip-rule="evenodd" d="M113.821 24.664c-9.983 12.128-17.03 25.215-22.247 39.331-4.468 12.091-7.194 24.593-8.085 37.443-.207 2.986-1.034 3.854-4.086 3.862-11.161.031-11.116.169-9.78-10.955 4.191-34.9 18.629-64.936 42.861-90.309 4.403-4.611 8.201-5.196 11.642-2.14 3.314 2.943 3.325 6.666-.557 11.373-1.735 2.105-1.582 4.258-1.584 6.544-.016 26.982-.024 53.965.005 80.948.002 2.595.383 4.762-3.669 4.613-3.34-.121-3.702-1.319-3.691-4.124.093-23.485.063-46.971.028-70.455-.004-1.763.433-3.606-.837-6.131zM114.448 201.325c.109-3.17.224-4.945.225-6.722.013-23.327.053-46.655-.043-69.982-.012-2.973.346-4.384 3.938-4.389 3.73-.004 3.422 1.945 3.419 4.372-.026 27.16.01 54.32-.049 81.48-.007 2.608.48 4.742 2.228 6.841 3.284 3.946 3.112 7.778-.021 10.594-3.281 2.946-7.079 2.57-10.935-1.396-24.09-24.79-38.573-54.303-43.307-88.563-.41-2.967-.378-6.009-.965-8.933-.764-3.807.874-4.355 4.222-4.318 9.903.109 9.746-.007 10.896 9.65 2.894 24.301 11.725 46.313 25.985 66.165 1.053 1.466 2.334 2.77 4.407 5.201z"/><path fill-rule="evenodd" clip-rule="evenodd" d="M22.651 98.899c.43.691.58.823.59.965.23 2.958-.577 7.611.891 8.496 2.478 1.494 6.394.693 9.704.695 43.133.021 86.267-.075 129.398.129 5.239.025 9.4-.725 13.292-4.612 5.473-5.466 12.53-1.685 19.182-2.937-.615 2.698-2.281 3.656-3.384 5.011-5.819 7.15-5.973 4.922.169 12.303 1.04 1.251 2.129 2.461 3.988 4.604-8.796-.355-17.075 2.438-23.289-5.329-1.086-1.358-2.533-2.177-4.722-2.155-21.978.219-43.956.253-65.935.283-24.647.032-49.296.107-73.941-.092-4.053-.033-5.532.783-5.236 5.095.39 5.689.065 5.713-5.043 2.764-5.472-3.159-10.929-6.345-16.422-9.466-2.104-1.195-2.829-2.246-.209-3.728 6.922-3.917 13.803-7.91 20.967-12.026z"/></svg>