<svg xmlns="http://www.w3.org/2000/svg" width="196.481" height="225.456" viewBox="0 0 196.481 225.456"><path fill="none" d="M104.907 63.995c4.468 12.091 7.194 24.593 8.085 37.443.207 2.986 1.034 3.854 4.086 3.862 11.161.031 11.116.169 9.78-10.955-4.191-34.9-18.629-64.936-42.861-90.309-4.403-4.611-8.201-5.196-11.642-2.14-3.314 2.944-3.325 6.667.557 11.374 1.735 2.105 1.582 4.258 1.584 6.544.016 26.982.024 53.965-.005 80.948-.002 2.595-.383 4.762 3.669 4.613 3.34-.121 3.702-1.319 3.691-4.124-.093-23.485-.063-46.971-.028-70.455.004-1.765-.434-3.607.837-6.133 9.983 12.129 17.03 25.215 22.247 39.332zM81.808 194.603c-.013-23.327-.053-46.655.043-69.982.012-2.973-.346-4.384-3.938-4.389-3.73-.004-3.422 1.945-3.419 4.372.026 27.16-.01 54.32.049 81.48.007 2.608-.48 4.742-2.228 6.841-3.284 3.946-3.112 7.778.021 10.594 3.281 2.946 7.079 2.57 10.935-1.396 24.09-24.79 38.573-54.303 43.307-88.563.41-2.967.378-6.009.965-8.933.764-3.807-.874-4.355-4.222-4.318-9.903.109-9.746-.007-10.896 9.65-2.894 24.301-11.725 46.313-25.985 66.165-1.054 1.467-2.335 2.771-4.407 5.201-.11-3.17-.224-4.946-.225-6.722zm91.432-94.739c-.23 2.958.577 7.611-.891 8.496-2.478 1.494-6.394.693-9.704.695-43.133.021-86.267-.075-129.398.129-5.239.025-9.4-.725-13.292-4.612-5.473-5.466-12.53-1.685-19.182-2.937.615 2.698 2.281 3.656 3.384 5.011 5.819 7.15 5.973 4.922-.169 12.303-1.04 1.251-2.129 2.461-3.988 4.604 8.796-.355 17.075 2.438 23.289-5.329 1.086-1.358 2.533-2.177 4.722-2.155 21.978.219 43.956.253 65.935.283 24.647.032 49.296.107 73.941-.092 4.053-.033 5.532.783 5.236 5.095-.39 5.689-.065 5.713 5.043 2.764 5.472-3.159 10.929-6.345 16.422-9.466 2.104-1.195 2.829-2.246.209-3.728-6.923-3.917-13.804-7.91-20.968-12.026-.429.691-.579.823-.589.965z"/><path fill-rule="evenodd" clip-rule="evenodd" d="M82.66 24.664c9.983 12.128 17.03 25.215 22.247 39.331 4.468 12.091 7.194 24.593 8.085 37.443.207 2.986 1.034 3.854 4.086 3.862 11.161.031 11.116.169 9.78-10.955-4.191-34.9-18.629-64.936-42.861-90.309-4.403-4.611-8.201-5.196-11.642-2.14-3.314 2.944-3.325 6.667.557 11.374 1.735 2.105 1.582 4.258 1.584 6.544.016 26.982.024 53.965-.005 80.948-.002 2.595-.383 4.762 3.669 4.613 3.34-.121 3.702-1.319 3.691-4.124-.093-23.485-.063-46.971-.028-70.455.004-1.764-.434-3.607.837-6.132zM82.033 201.325c-.109-3.17-.224-4.945-.225-6.722-.013-23.327-.053-46.655.043-69.982.012-2.973-.346-4.384-3.938-4.389-3.73-.004-3.422 1.945-3.419 4.372.026 27.16-.01 54.32.049 81.48.007 2.608-.48 4.742-2.228 6.841-3.284 3.946-3.112 7.778.021 10.594 3.281 2.946 7.079 2.57 10.935-1.396 24.09-24.79 38.573-54.303 43.307-88.563.41-2.967.378-6.009.965-8.933.764-3.807-.874-4.355-4.222-4.318-9.903.109-9.746-.007-10.896 9.65-2.894 24.301-11.725 46.313-25.985 66.165-1.054 1.466-2.335 2.77-4.407 5.201z"/><path fill-rule="evenodd" clip-rule="evenodd" d="M173.83 98.899c-.43.691-.58.823-.59.965-.23 2.958.577 7.611-.891 8.496-2.478 1.494-6.394.693-9.704.695-43.133.021-86.267-.075-129.398.129-5.239.025-9.4-.725-13.292-4.612-5.473-5.466-12.53-1.685-19.182-2.937.615 2.698 2.281 3.656 3.384 5.011 5.819 7.15 5.973 4.922-.169 12.303-1.04 1.251-2.129 2.461-3.988 4.604 8.796-.355 17.075 2.438 23.289-5.329 1.086-1.358 2.533-2.177 4.722-2.155 21.978.219 43.956.253 65.935.283 24.647.032 49.296.107 73.941-.092 4.053-.033 5.532.783 5.236 5.095-.39 5.689-.065 5.713 5.043 2.764 5.472-3.159 10.929-6.345 16.422-9.466 2.104-1.195 2.829-2.246.209-3.728-6.922-3.917-13.803-7.91-20.967-12.026z"/></svg>