<svg xmlns="http://www.w3.org/2000/svg" width="358.512" height="269.127" viewBox="0 0 358.512 269.127"><path fill="none" d="M179.153 269.125c35.828 0 71.657.003 107.485-.002 9.953-.002 13.416-2.469 16.547-11.785 17.955-53.44 35.909-106.882 53.856-160.325 4.261-12.688-.835-19.878-14.104-19.884-30.829-.013-61.658-.054-92.486.065-3.422.014-4.797-.634-5.336-4.446-2.467-17.482-7.641-34.017-18.194-48.556-21.58-29.729-66.332-32.559-91.385-5.716-14.011 15.013-19.923 33.572-22.959 53.232-.699 4.522-2.179 5.536-6.464 5.511-30.495-.178-60.991-.051-91.487-.134-5.596-.015-10.203 1.579-13.111 6.559-2.496 4.274-1.478 8.644-.008 13.013C19.533 150.25 37.532 203.852 55.543 257.45c3.067 9.127 6.57 11.669 16.125 11.671 35.829.009 71.657.004 107.485.004z"/><path fill-rule="evenodd" clip-rule="evenodd" d="M179.153 269.125c-35.828 0-71.657.005-107.485-.004-9.556-.002-13.058-2.544-16.125-11.671-18.011-53.598-36.01-107.2-54.036-160.793-1.47-4.369-2.488-8.738.008-13.013 2.908-4.979 7.515-6.573 13.111-6.559 30.496.083 60.992-.044 91.487.134 4.285.025 5.765-.988 6.464-5.511 3.037-19.66 8.948-38.22 22.959-53.232 25.054-26.843 69.805-24.013 91.385 5.716 10.554 14.539 15.728 31.073 18.194 48.556.539 3.812 1.914 4.46 5.336 4.446 30.828-.119 61.657-.078 92.486-.065 13.27.006 18.365 7.196 14.104 19.884-17.947 53.443-35.901 106.885-53.856 160.325-3.131 9.316-6.594 11.783-16.547 11.785-35.827.005-71.657.002-107.485.002zm-.671-192c12.823 0 25.646-.041 38.471.036 2.373.015 3.803-.233 3.246-3.201-2.098-11.186-5.016-22.096-11.207-31.791-14.205-22.249-44.249-22.938-59.459-1.358-6.962 9.877-9.947 21.286-12.133 32.975-.626 3.35 1.172 3.384 3.611 3.371 12.489-.068 24.98-.032 37.471-.032zm-41.348 77c-9.665 0-19.331.104-28.992-.059-3.094-.053-4.426.63-4.355 4.076.208 10.16.158 20.328.023 30.49-.041 3.095.716 4.423 4.158 4.397 19.494-.146 38.991-.131 58.485-.008 3.054.02 4.006-.867 3.955-3.941-.172-10.328-.218-20.664.02-30.989.081-3.485-1.229-4.081-4.301-4.027-9.662.167-19.328.061-28.993.061zm82.706 38.834c9.986 0 19.974-.08 29.958.051 2.778.037 3.794-.788 3.757-3.662-.135-10.65-.133-21.304 0-31.954.033-2.723-.992-3.322-3.498-3.312-19.806.081-39.611.08-59.416 0-2.495-.01-3.543.567-3.508 3.304.135 10.649.134 21.303 0 31.953-.036 2.864.959 3.711 3.749 3.672 9.651-.136 19.306-.053 28.958-.052zm-82.433-90.834c-9.654 0-19.315.198-28.96-.097-3.881-.119-4.762 1.184-4.665 4.803.238 8.815.169 17.644.03 26.463-.046 2.921.729 4.08 3.892 4.06 19.641-.127 39.283-.104 58.925-.014 2.684.012 3.833-.57 3.778-3.551-.174-9.318-.214-18.646.018-27.962.082-3.298-1.195-3.802-4.055-3.758-9.653.148-19.308.057-28.963.056zm82.997.001c-9.832 0-19.666.079-29.497-.052-2.696-.036-3.839.576-3.784 3.553.171 9.33.15 18.666.009 27.996-.042 2.79.784 3.737 3.653 3.722a5949.65 5949.65 0 0 1 58.996-.007c2.71.013 3.832-.641 3.781-3.593a832.093 832.093 0 0 1-.004-27.996c.045-2.812-.793-3.729-3.656-3.684-9.83.159-19.665.062-29.498.061zm-83.356 141.999c9.82 0 19.642-.121 29.458.071 3.085.061 3.976-.826 3.908-3.909-.199-9.149-.133-18.308-.033-27.461.025-2.358-.752-3.221-3.139-3.213-19.973.06-39.946.062-59.918-.004-2.579-.008-3.52.908-3.492 3.492.097 9.153.125 18.31-.021 27.462-.046 2.894 1.037 3.649 3.777 3.612 9.819-.132 19.64-.051 29.46-.05zm83.279 0c9.833 0 19.666-.086 29.496.055 2.755.04 3.792-.681 3.739-3.599-.166-9.162-.133-18.331-.02-27.495.033-2.584-.841-3.491-3.436-3.481-19.832.071-39.662.069-59.494.001-2.556-.009-3.504.826-3.471 3.447.117 9.164.145 18.333-.016 27.495-.051 2.874.904 3.677 3.705 3.635 9.831-.149 19.665-.058 29.497-.058zm79.523-141.999c-8.648 0-17.3.11-25.945-.062-2.873-.058-3.665.872-3.618 3.672a834.08 834.08 0 0 1 0 27.94c-.048 2.834.829 3.697 3.657 3.67 13.305-.127 26.611-.113 39.917-.005 2.394.02 3.561-.778 4.29-3.031 3.121-9.638 6.296-19.261 9.646-28.821.983-2.805.261-3.442-2.499-3.404-8.482.115-16.966.041-25.448.041zm-241.004 0c-8.482 0-16.966.072-25.447-.041-2.741-.036-3.5.573-2.511 3.396 3.351 9.56 6.523 19.183 9.646 28.819.728 2.247 1.883 3.062 4.283 3.042 12.972-.111 25.947-.124 38.918.004 2.816.027 3.715-.814 3.667-3.661a828.708 828.708 0 0 1-.001-27.939c.046-2.786-.722-3.744-3.608-3.683-8.313.179-16.631.063-24.947.063zm231.905 52.003c-5.825 0-11.651.059-17.476-.032-2.05-.031-2.985.504-2.967 2.773.088 10.985.09 21.971-.001 32.955-.02 2.376.79 3.204 3.164 3.17a784.814 784.814 0 0 1 21.969 0c2.162.029 3.27-.685 3.962-2.809 3.601-11.051 7.279-22.077 11.095-33.056.898-2.585.216-3.1-2.271-3.045-5.822.128-11.65.042-17.475.044zm-243.477.002c4.181 12.538 8.226 24.633 12.239 36.738.578 1.741 1.787 2.12 3.456 2.108 7.156-.052 14.314-.074 21.47.009 2.13.024 2.943-.717 2.93-2.884a2937.306 2937.306 0 0 1-.005-33.453c.01-1.99-.816-2.55-2.673-2.543-12.297.049-24.594.025-37.417.025zm223.07 72.495c0 4.316-.136 8.64.07 12.947.077 1.62-1.37 4.799 2.017 4.394 3.302-.395 7.894 2.824 9.761-2.72 3.176-9.423 6.232-18.887 9.499-28.277.84-2.416.457-3.373-2.173-3.344-5.312.06-10.63.127-15.938-.027-2.74-.08-3.351 1.133-3.273 3.579.14 4.479.039 8.965.037 13.448zm-183.005.002c0-4.648-.059-9.299.027-13.946.038-2.014-.51-3.091-2.757-3.055-5.146.08-10.293.023-15.44.016-1.957-.003-3.221.302-2.337 2.859 3.412 9.865 6.5 19.847 10.095 29.642 1.518 4.133 5.507 1.521 8.325 1.864 3.102.377 1.995-2.398 2.042-3.932.138-4.479.049-8.964.045-13.448z"/><path clip-rule="evenodd" fill="none" d="M178.482 77.125c-12.491 0-24.982-.035-37.472.031-2.439.013-4.237-.021-3.611-3.371 2.187-11.688 5.171-23.098 12.133-32.975 15.21-21.579 45.254-20.891 59.459 1.358 6.191 9.695 9.109 20.605 11.207 31.791.557 2.968-.873 3.216-3.246 3.201-12.823-.077-25.646-.035-38.47-.035zM137.134 154.125c9.665 0 19.331.105 28.992-.061 3.073-.054 4.382.542 4.301 4.027-.237 10.325-.191 20.661-.02 30.989.051 3.074-.901 3.961-3.955 3.941-19.494-.123-38.991-.139-58.485.008-3.442.025-4.199-1.303-4.158-4.397.135-10.162.186-20.33-.023-30.49-.071-3.446 1.261-4.129 4.355-4.076 9.663.163 19.329.059 28.993.059zM219.84 192.958c-9.652 0-19.307-.083-28.958.053-2.79.039-3.785-.808-3.749-3.672.134-10.65.135-21.304 0-31.953-.035-2.736 1.013-3.313 3.508-3.304 19.805.08 39.61.081 59.416 0 2.506-.011 3.531.589 3.498 3.312-.133 10.65-.135 21.304 0 31.954.037 2.874-.979 3.699-3.757 3.662-9.985-.131-19.972-.051-29.958-.052zM137.407 102.125c9.654.001 19.31.092 28.962-.056 2.859-.044 4.137.46 4.055 3.758-.231 9.316-.191 18.644-.018 27.962.055 2.98-1.095 3.562-3.778 3.551-19.642-.091-39.284-.113-58.925.014-3.162.021-3.938-1.139-3.892-4.06.139-8.819.208-17.647-.03-26.463-.097-3.619.784-4.922 4.665-4.803 9.646.296 19.307.097 28.961.097zM220.404 102.126c9.833.001 19.668.098 29.498-.061 2.863-.046 3.701.871 3.656 3.684-.149 9.33-.161 18.666.004 27.996.051 2.952-1.071 3.605-3.781 3.593-19.666-.09-39.332-.099-58.996.007-2.869.016-3.695-.932-3.653-3.722.142-9.33.162-18.666-.009-27.996-.055-2.977 1.088-3.589 3.784-3.553 9.831.132 19.665.052 29.497.052zM137.048 244.125c-9.82-.001-19.641-.081-29.459.051-2.74.037-3.823-.719-3.777-3.612.146-9.152.118-18.309.021-27.462-.027-2.584.913-3.5 3.492-3.492 19.972.066 39.945.063 59.918.004 2.387-.008 3.164.854 3.139 3.213-.1 9.153-.166 18.312.033 27.461.067 3.083-.823 3.97-3.908 3.909-9.817-.194-19.639-.072-29.459-.072zM220.327 244.125c-9.832 0-19.666-.091-29.495.058-2.801.042-3.756-.761-3.705-3.635.16-9.162.133-18.331.016-27.495-.033-2.621.915-3.456 3.471-3.447 19.832.068 39.662.07 59.494-.001 2.595-.01 3.469.897 3.436 3.481-.113 9.164-.146 18.333.02 27.495.053 2.918-.984 3.639-3.739 3.599-9.832-.141-19.665-.055-29.498-.055zM299.85 102.126c8.482 0 16.967.073 25.447-.041 2.76-.038 3.482.6 2.499 3.404-3.35 9.561-6.524 19.184-9.646 28.821-.729 2.253-1.896 3.051-4.29 3.031a2260.138 2260.138 0 0 0-39.917.005c-2.828.027-3.705-.836-3.657-3.67a834.08 834.08 0 0 0 0-27.94c-.047-2.8.745-3.729 3.618-3.672 8.646.173 17.297.062 25.946.062zM58.846 102.126c8.316 0 16.635.115 24.947-.062 2.886-.062 3.654.896 3.608 3.683a834.02 834.02 0 0 0 .001 27.939c.049 2.847-.85 3.688-3.667 3.661a2112.473 2112.473 0 0 0-38.918-.004c-2.4.021-3.555-.795-4.283-3.042-3.123-9.637-6.295-19.26-9.646-28.819-.99-2.823-.23-3.433 2.511-3.396 8.481.113 16.964.04 25.447.04zM290.751 154.128c5.825-.001 11.653.085 17.476-.042 2.486-.055 3.169.46 2.271 3.045-3.815 10.979-7.494 22.005-11.095 33.056-.692 2.124-1.8 2.838-3.962 2.809a784.814 784.814 0 0 0-21.969 0c-2.374.034-3.184-.794-3.164-3.17.091-10.984.089-21.97.001-32.955-.019-2.27.917-2.805 2.967-2.773 5.824.09 11.65.031 17.475.03zM47.274 154.131c12.823 0 25.12.023 37.417-.024 1.856-.007 2.683.553 2.673 2.543-.059 11.15-.063 22.302.005 33.453.013 2.167-.8 2.908-2.93 2.884-7.156-.083-14.313-.061-21.47-.009-1.669.012-2.878-.367-3.456-2.108-4.013-12.106-8.057-24.201-12.239-36.739zM270.345 226.626c.001-4.483.103-8.97-.039-13.448-.077-2.446.533-3.659 3.273-3.579 5.309.154 10.626.087 15.938.027 2.63-.029 3.013.928 2.173 3.344-3.267 9.391-6.323 18.854-9.499 28.277-1.867 5.544-6.459 2.325-9.761 2.72-3.387.405-1.939-2.773-2.017-4.394-.205-4.307-.069-8.63-.068-12.947zM87.341 226.628c.002 4.483.091 8.969-.047 13.448-.047 1.533 1.06 4.309-2.042 3.932-2.818-.343-6.808 2.269-8.325-1.864-3.596-9.795-6.683-19.776-10.095-29.642-.884-2.558.38-2.862 2.337-2.859 5.147.008 10.295.064 15.44-.016 2.247-.036 2.794 1.041 2.757 3.055-.086 4.648-.027 9.298-.025 13.946z"/></svg>