<svg xmlns="http://www.w3.org/2000/svg" width="318.092" height="214.505" viewBox="0 0 318.092 214.505"><path fill="#FFF" d="M264.726 165.135l-.188.001c-13.212.091-24.376 11.447-24.378 24.799-.001 6.452 2.623 12.589 7.388 17.28 4.775 4.7 11.026 7.289 17.602 7.29l.146-.001c6.555-.038 12.747-2.678 17.438-7.432 4.612-4.674 7.125-10.758 7.076-17.13-.104-13.91-11.123-24.807-25.084-24.807zm-141.466.013c-13.775 0-24.727 10.741-24.933 24.453-.098 6.476 2.41 12.652 7.059 17.393 4.723 4.815 10.986 7.482 17.635 7.511l.11.001c13.412 0 24.485-10.893 24.685-24.281.101-6.721-2.387-13.022-7.003-17.744-4.574-4.679-10.738-7.282-17.354-7.331l-.199-.002zM22.448 22.602c8.629 0 14.003 5.343 18.123 10.57C51.507 47.049 59.64 60.643 65.434 74.729c6.465 15.718 13.546 31.515 20.395 46.792 2.418 5.395 4.836 10.789 7.234 16.192 2.611 5.882 6.215 8.281 12.441 8.281.331 0 .667-.007 1.01-.021 20.464-.833 41.271-1.623 61.393-2.387l25.896-.987v.03c7.009-.266 14.019-.534 21.027-.804 20.117-.771 40.92-1.567 61.385-2.29 8.327-.294 11.475-2.582 14.03-10.2 2.394-7.135 4.784-14.408 7.096-21.441l2.753-8.368c1.652-5.012 3.312-10.021 4.972-15.031 4.075-12.3 8.288-25.019 12.315-37.558 1.176-3.658.891-7.282-.799-10.204-1.596-2.754-4.33-4.669-7.701-5.39a11.356 11.356 0 0 0-2.365-.255c-5.12 0-9.367 3.582-11.363 9.58-7.146 21.475-15.245 45.815-22.888 69.645-1.459 4.545-4.122 6.556-8.905 6.725-55.812 1.974-102.119 3.674-145.734 5.353-.189.007-.373.011-.552.011-4.97 0-6.909-2.995-8.044-5.604-10.316-23.72-20.691-47.18-30.726-69.868-.188-.424-.374-.853-.56-1.283-.979-2.261-1.904-4.396-3.207-6.092-8.165-10.629-16.631-21.32-24.817-31.659l-2.612-3.3C44.813 1.696 42.11.204 39.077.163L36.639.129C32.129.065 27.466 0 22.891 0c-4.713 0-8.852.07-12.652.216C4.673.429.081 5.451.001 11.409c-.077 5.715 4.12 10.586 9.762 11.33 1.69.223 3.675.451 5.583.451 1.12 0 2.113-.076 3.035-.231a24.533 24.533 0 0 1 4.067-.357z"/><path fill="#0e0e0e" d="M22.448 22.602c8.629 0 14.003 5.343 18.123 10.57 10.937 13.877 19.07 27.471 24.863 41.557 6.465 15.718 13.546 31.515 20.394 46.791 2.418 5.395 4.837 10.79 7.234 16.193 2.611 5.882 6.215 8.281 12.441 8.281.331 0 .667-.007 1.01-.021 20.464-.833 41.271-1.623 61.393-2.387l25.896-.987v.03c7.004-.266 14.007-.534 21.011-.803 20.123-.771 40.931-1.568 61.401-2.291 8.327-.294 11.475-2.582 14.03-10.2 2.394-7.135 4.784-14.407 7.096-21.44l2.753-8.369c1.652-5.011 3.312-10.02 4.971-15.029 4.076-12.301 8.289-25.021 12.316-37.561 1.176-3.658.891-7.282-.799-10.204-1.596-2.754-4.33-4.669-7.701-5.39a11.356 11.356 0 0 0-2.365-.255c-5.042 0-9.397 3.671-11.363 9.58-7.146 21.475-15.244 45.814-22.888 69.645-1.459 4.545-4.122 6.556-8.905 6.725-55.812 1.974-102.119 3.674-145.734 5.353-.189.007-.373.011-.552.011-4.97 0-6.91-2.995-8.044-5.604-10.316-23.72-20.691-47.18-30.726-69.868-.188-.424-.374-.853-.56-1.283-.979-2.261-1.904-4.396-3.207-6.092-8.165-10.627-16.631-21.32-24.818-31.66l-2.61-3.297C44.813 1.697 42.11.205 39.077.164L36.642.13C32.131.065 27.468 0 22.891 0c-4.713 0-8.852.07-12.652.216C4.673.429.081 5.451.001 11.409c-.077 5.715 4.12 10.586 9.762 11.33 1.69.223 3.675.451 5.583.451 1.12 0 2.113-.076 3.035-.231a24.533 24.533 0 0 1 4.067-.357zM264.726 165.135l-.188.001c-13.212.091-24.376 11.447-24.378 24.799-.001 6.452 2.622 12.59 7.388 17.281 4.774 4.7 11.025 7.289 17.602 7.289l.146-.001c6.555-.038 12.747-2.678 17.438-7.432 4.612-4.674 7.125-10.758 7.076-17.13-.104-13.91-11.123-24.807-25.084-24.807zM123.26 165.148c-13.775 0-24.727 10.741-24.933 24.453-.098 6.476 2.409 12.652 7.059 17.393 4.723 4.814 10.986 7.482 17.635 7.511l.11.001c13.412 0 24.485-10.893 24.685-24.281.101-6.721-2.387-13.021-7.003-17.744-4.575-4.679-10.738-7.282-17.354-7.331l-.199-.002z"/></svg>