<svg xmlns="http://www.w3.org/2000/svg" width="234.117" height="234.14" viewBox="0 0 234.117 234.14"><path fill="none" d="M233.724 117.231h.339c0-22.988-.2-45.979.051-68.965.333-30.631-22.302-48.059-44.718-48.134-48.309-.163-96.619-.192-144.927.01C20.211.244.147 20.405.089 44.455-.029 92.929-.03 141.406.09 189.88c.058 23.296 19.239 43.18 42.506 43.976 13.477.461 26.98.225 40.471.216 36.146-.023 72.299.251 108.439-.272 22.157-.321 41.59-19.611 42.088-41.626.564-24.969.13-49.962.13-74.943z"/><path fill-rule="evenodd" clip-rule="evenodd" d="M233.724 117.231c0 24.981.435 49.974-.13 74.942-.498 22.015-19.931 41.305-42.088 41.626-36.141.523-72.293.249-108.439.272-13.491.009-26.994.245-40.471-.216C19.329 233.06.147 213.176.09 189.88-.03 141.405-.029 92.929.089 44.454.147 20.404 20.212.243 44.469.142c48.308-.202 96.618-.173 144.927-.01 22.416.075 45.051 17.503 44.718 48.134-.251 22.985-.051 45.977-.051 68.965h-.339zm-106.669 34.69c0-10.494.082-20.99-.052-31.483-.037-2.94.737-4.265 3.911-4.074 3.816.229 7.658.052 11.49.052 13.461-.001 13.359.002 13.062-13.448-.068-3.095-1.033-4.018-4.042-3.941-6.991.177-13.992.005-20.987.081-2.17.023-3.472-.426-3.4-2.981.167-5.99-.107-12.005.33-17.971.473-6.452 3.93-9.472 10.43-9.696 4.492-.155 8.998-.152 13.491-.009 2.854.092 4.365-.621 4.154-3.878-.236-3.649-.2-7.334-.006-10.988.149-2.793-.761-3.801-3.647-3.727-6.992.179-13.991.01-20.987.067-12.896.106-23.274 9.594-24.332 22.439-.409 4.968-.367 9.979-.389 14.971-.051 11.746-.016 11.747-11.6 11.747-13.28 0-13.131-.002-13.021 13.336.029 3.55 1.408 4.136 4.402 4.039 4.992-.162 10.012.221 14.985-.123 4.149-.286 5.358 1.057 5.313 5.249-.213 19.987-.03 39.979-.156 59.968-.021 3.331.727 4.857 4.385 4.598 4.144-.295 8.336-.255 12.485-.009 3.29.195 4.296-.98 4.239-4.234-.177-9.992-.064-19.989-.058-29.985z"/></svg>