<svg xmlns="http://www.w3.org/2000/svg" width="234.117" height="234.14" viewBox="0 0 234.117 234.14"><path fill="none" d="M116.665 233.67h74.641c25.244-.001 42.362-17.054 42.363-42.212.005-49.761.003-99.521.001-149.283C233.669 17.194 216.535.004 191.631.002 141.75 0 91.869 0 41.987.002 17.257.003.006 17.198.004 41.849c-.005 50.001-.005 100.003 0 150.003.002 24.479 17.268 41.808 41.659 41.816 25 .007 50.002.002 75.002.002z"/><path fill-rule="evenodd" clip-rule="evenodd" d="M116.665 233.67c-25 0-50.001.005-75.001-.001C17.272 233.661.007 216.332.005 191.853 0 141.853 0 91.851.005 41.85.006 17.198 17.257.003 41.987.002 91.869 0 141.75 0 191.631.002c24.903.001 42.038 17.191 42.039 42.173.002 49.761.004 99.521-.001 149.283-.001 25.158-17.119 42.211-42.363 42.212h-74.641zm.065-23.079v-.103c21.273 0 42.552.312 63.816-.103 15.535-.303 27.85-13.025 27.948-28.353.176-27.522.03-55.047.094-82.571.005-2.149-.507-2.917-2.793-2.873-7.449.143-14.906.183-22.354-.014-2.827-.074-2.785 1.016-2.2 3.113 2.69 9.65 2.941 19.412 1.231 29.262-7.695 44.353-58.874 68.537-97.966 46.281C57.344 159.768 44.705 130 52.473 99.549c.638-2.5.028-3.004-2.395-2.956-7.089.139-14.188.209-21.271-.026-3.03-.1-3.766.782-3.752 3.77.12 26.802.062 53.605.089 80.408.002 1.914.069 3.864.427 5.736 2.774 14.535 14.59 24.018 30.222 24.088 20.312.091 40.625.022 60.937.022zm-41.602-93.663c.002 22.961 18.716 41.594 41.796 41.619 22.737.023 41.597-18.752 41.621-41.436.023-23.265-18.63-42.001-41.802-41.984-22.96.016-41.618 18.758-41.615 41.801zm133.418-68.316c0-4.442.024-8.885-.006-13.327-.032-4.476-1.835-6.383-6.287-6.415-8.764-.063-17.53-.065-26.294 0-4.27.033-6.278 1.933-6.322 6.114-.094 8.884-.087 17.77-.004 26.654.041 4.298 1.96 6.126 6.213 6.144 8.885.037 17.77.037 26.655 0 4.268-.018 5.995-1.816 6.036-6.203.04-4.322.009-8.644.009-12.967z"/></svg>