<svg xmlns="http://www.w3.org/2000/svg" width="121.319" height="259.251" viewBox="0 0 121.319 259.251"><path fill="none" d="M.025 129.628c-.179 4.314 2.445 7.175 4.908 10.129 30.507 36.584 61.003 73.177 91.521 109.75 2.023 2.425 4 4.955 6.367 7.012 3.42 2.973 7.529 3.54 11.672 1.6 4.048-1.896 6.36-5.132 6.781-9.73.428-4.67-2.239-7.811-4.928-11.036-28.59-34.29-57.068-68.675-85.872-102.784-3.527-4.176-3.043-6.355.173-10.18 29.058-34.55 57.904-69.276 86.815-103.948 1.831-2.196 3.445-4.479 3.763-7.451.545-5.102-2-9.781-6.511-11.871-4.976-2.305-10.322-1.035-14.321 3.716-9.651 11.47-19.194 23.03-28.792 34.545-22.288 26.74-44.584 53.474-66.873 80.214-2.462 2.952-5.009 5.879-4.703 10.034z"/><path fill-rule="evenodd" clip-rule="evenodd" d="M.025 129.628c-.306-4.155 2.241-7.082 4.704-10.036 22.289-26.74 44.584-53.474 66.873-80.214 9.598-11.515 19.14-23.075 28.792-34.545 3.999-4.751 9.345-6.021 14.321-3.716 4.511 2.09 7.056 6.77 6.511 11.871-.318 2.972-1.932 5.255-3.763 7.451-28.912 34.673-57.758 69.399-86.816 103.949-3.216 3.824-3.7 6.004-.173 10.18 28.804 34.109 57.282 68.494 85.872 102.784 2.689 3.226 5.356 6.366 4.928 11.036-.421 4.599-2.733 7.834-6.781 9.73-4.143 1.94-8.251 1.373-11.672-1.6-2.367-2.057-4.343-4.587-6.367-7.012-30.519-36.573-61.015-73.166-91.521-109.75-2.463-2.953-5.087-5.813-4.908-10.128z"/></svg>