<svg xmlns="http://www.w3.org/2000/svg" viewBox="0 0 781.17 137.03"><title>logo</title><g data-name="Layer 1"><path class="logo-path" d="M407.95 115.84c-4.15 0-7.49.12-10.81 0-3.8-.17-6.95 1.58-10.23 3a3.08 3.08 0 0 0-1.89 3.62c.23 1.86 1.48 2.4 3.17 2.38 2.16 0 4.43-.37 6.48.11 18.59 4.37 37.56 4.24 56.46 4.94 7.81.29 15.54-1.16 23.29-1 13.14.35 25.7-2.66 38.1-6.22 10.82-3.11 21.7-6.5 30.4-14.33 5-4.47 6.94-13.49 4.44-19.69-3.47-8.62-11.08-12.39-18.73-15.83A229.32 229.32 0 0 0 503 63.57c-11.15-3.51-22.45-6.41-33.66-9.69-12.61-3.69-25.39-6.78-37.84-11-6.61-2.25-13.27-4.33-19.83-6.71-7.63-2.78-15-6.22-21.28-11.47-2.36-2-3.17-4.42-.9-6.7 1.68-1.69 3.92-3.46 6.15-3.84 7.89-1.35 15.76-2.91 23.81-3.36 6-.34 11.87.8 17.79 1.16a157.52 157.52 0 0 1 19.5 2.39c6.84 1.29 13.1 5 19.59 6.78 10.2 2.8 20 6.84 30.14 9.55 6.28 1.67 12.58 3.29 18.87 4.93 3.84 1 8.74-1.09 9.51-4 1-3.89-1.23-9.8-4.19-10.63-8.6-2.41-17.17-5-25.88-7-16-3.63-32-7.68-48.24-10-7-1-13.9-2.77-20.87-2.86C425.38.89 415.12-.9 404.61.59c-7 1-13.75 2-20.11 5.14-10.8 5.39-13.81 18.63-4.77 27.53 8 7.93 17.81 12.62 28 16.58 12.11 4.69 24.6 8.31 36.86 12.54 10.43 3.59 20.91 7.18 31.47 10.15C488 75.85 499.9 79 511.51 83c6.36 2.21 13.41 3 18.83 7.66 4 3.43 3.73 5.75-.94 8.38a121.87 121.87 0 0 1-22.4 9.49 164.06 164.06 0 0 1-33.88 6.95 340.72 340.72 0 0 1-35.7 1.52c-10.13 0-20.17-1.75-29.47-1.16zm-287.81 7.85A196 196 0 0 1 74 120c-18.45-3.49-35.48-9.74-50.35-21.21-5.49-4.23-9.07-9.33-7.08-17.51.83-3.42 3.07-4.76 4.45-7.14a49.33 49.33 0 0 1 15.37-16.5c16-10.73 33.27-18.36 51.5-24.23C111 26 128.46 19.1 153.13 19.66a80.4 80.4 0 0 0 12.27-.89c8.76-1.18 17.54-.71 26.3-1 4.51-.13 6.4-3.16 5.07-7.45C195.06 4.79 191.1 2 185 1.83c-18.37-.63-36.45 2-54.43 5.14a319.22 319.22 0 0 0-43 10.7A300.47 300.47 0 0 0 58 28.7C40.66 36.33 24.15 45 11.23 59.18 5.35 65.65.55 72.78 0 81.9c-.69 12.48 7.87 19.69 16 26.84 7.06 6.23 15.34 10.79 24 14.51 5.06 2.18 10.25 4.4 15.61 5.41 8.64 1.63 17.21 3.51 26 4.53 17.72 2 35.51 2.07 53.23 3.58 14.58 1.25 28.81-2.45 43.12-4.25 11.76-1.48 11.14-3.35 11-11.21-.08-3.73-2.66-4.9-5.7-4-4.58 1.31-9.24 1.89-13.87 2.78a210.53 210.53 0 0 1-49.26 3.6zm450.25-64.84c-2.81 6.79-5.25 12.75-7.75 18.69-4.22 10-8.49 20.08-12.71 30.12-1.32 3.13-2.31 7 .08 9.29 2.16 2.1 5.84 1.13 8.9 0a65.49 65.49 0 0 0 14.09-7.58c1.53-1.05 2.8-2.48 4.44 1 3.14 6.67 8 7.94 15.18 5.41 3-1 5.36-3 7.84-4.92 3.39-2.59 5.71-6.35 10.34-7.66 5-1.42 10.43-1.56 15.15-3.59 5.57-2.4 11.54-3.31 17.08-5.75 4.88-2.15 10.14-3.43 16.36-5.46-4 4.56-7.25 8.06-10.25 11.76-2.43 3-4.88 6.8-2.66 10.32 2 3.2 5.92 3.35 10.07 2.68 9.2-1.48 17.95-4.64 27-6.53 2.87-.6 4.86-.16 6.41 1.83 3.66 4.69 8.62 5.38 14.07 5.38 20.44 0 40.85-1.78 61.29-1 5.07.19 9.47-2.29 14.17-3.49 2-.5 2.32-2.91 0-4.62-1.51-1.13-3.39-.34-4.73-1-4.44-2.34-3.85.29-3.29 3a69.49 69.49 0 0 0-21.14-2.13c-15.28.84-30.65.2-46 .31-2.66 0-4.08-1.64-5.08-3.38-1.09-1.92 1.25-3.82 2.21-4.32 3.71-1.93 4.45-5.66 5.94-8.77a5.62 5.62 0 0 0-2.45-7.75c-2.69-1.42-5.74-1.84-8.17.73-2 2.16-4.59 3.85-6 6.57a13.93 13.93 0 0 1-8.38 7 101.7 101.7 0 0 0-10.81 4.4c-1.79.82-4 1.8-6.43 1.23 1.77-2.6 3-5.46 5.09-7.21 4.15-3.44 4.51-7.44 2.4-11.69-1.94-3.92-9.39-6.25-13.7-4.88-12.86 4.08-25.84 7.81-38.5 12.43-5.09 1.86-7.87.73-10.64-3.29-2.88-4.19-7.32-3.63-9.5.81a16.24 16.24 0 0 0-1.52 7.13 12 12 0 0 1-9.79 11.33c-.14-2.36 1.2-3.92 2.56-5.62C594.54 95.94 598 92.45 597 87c-.68-3.87-5.32-7.4-8-5.49-4.11 2.9-8.48 5.43-12.07 9.14-3.37 3.48-7.41 6.31-11.16 9.44-1.34-1.85-.38-2.95.2-4.1 2.63-5.21 5.32-10.39 7.87-15.64 2.76-5.66 5.34-11.41 8.09-17.06 1.79-3.67 4.4-5.75 8.95-5.51 6.81.37 13.66 0 20.49.15 3.77.1 6.32-1.69 8.3-4.48.91-1.28 1.93-2.92 1.14-4.61s-2.64-.9-4-.91c-9.05-.08-18.11 0-27.88 0 2.4-4.1 4.85-7.27 6.21-10.85 1.93-5.09 6.58-9.17 5.83-15.28-.15-1.23.36-3.15-1.74-2.78-4 .69-8.5.53-10.89 5-3.5 6.61-7.28 13.07-10.71 19.71-1.89 3.66-4.57 5.24-8.67 5.2-12-.12-24-.05-36 0-1.76 0-4-.6-4.8 1.58-.92 2.43 1.42 3.52 2.8 4.78a9.44 9.44 0 0 0 3.53 1.61c5.55 1.74 11.38 1.28 17.06 1.88 5.92.56 11.96.07 18.84.07zM317.6 85.75c.51 3.1.84 5.85 1.43 8.54.69 3.17 1 6.6 2.52 9.38 2.46 4.63 7.44 4.91 12 5.11 5 .22 10-.09 15 .09 4.63.17 8.31-5.14 13.45-2.19.62.36 2-.84 1.79-1.89-.29-1.37-.41-2 1.34-2 2.91 0 2.07-2.37 1.42-3.56s-1.29-2.64-3.81-1.8a68.62 68.62 0 0 1-26.6 3.27c-4.71-.33-7.13-3.82-7.16-8.85s.08-10 0-15A6.57 6.57 0 0 0 319 71.3c-12 7.7-24 15.3-35.93 23.11-2.48 1.63-4.47 2.22-6.88 0 8-2.74 11.15-4.94 15.11-10.37 2.4-3.29 2.43-8.76-.2-11.46-2.94-3-6.34-1.94-9.57-.48a25.56 25.56 0 0 0-8.4 6.62 42 42 0 0 1-19.46 12.85c-1.42.44-3.17.9-4.21-.24s-.58-2.81-.1-4.25c.88-2.62 1.76-5.24 2.65-7.86.79-2.32 2-4.67-.14-6.9s-4.68-1.47-7.32-.68c-11.15 3.36-20.85 9.8-32.24 15.15 2.86-3.75 4.53-7 7-9.87s5-6.45 3.38-10.12c-1.57-3.52-5.83-3-9.24-2.88-4.84.23-8.85 2.65-13.19 4.62C188.74 73.76 176.77 78 165 82.88c-3.32 1.37-5.71 1.41-8.11-1.82s-5.36-3.32-8.34-.34c-1 1-1.64 2.53-3.37 2.51-.52-1.59.28-2.88.64-4.31 1-4.06-1.42-6.33-5.29-4.78-2.48 1-5.05 2-6.66 4.72A127.84 127.84 0 0 1 126 90.54a38.83 38.83 0 0 0-6.61 12.46c-1.44 5 1.55 9.1 6.71 9.93 8.63 1.4 13.71-3.95 18.56-9.47 3.75-4.26 7-8.63 13.72-5.73a6.45 6.45 0 0 0 4.38-.28c10.41-4 21.21-7.07 31.24-12.08a3.5 3.5 0 0 1 3.61 0c-1.31 5.56-5.66 10.08-4.71 16.38.66 4.39 3.3 6.45 7.62 5.37 8-2 13.62-8 20.38-12.1 5-3 9.67-6.62 15.09-10.38 0 3-.15 4.79 0 6.61 1.06 10.75 3.5 13.27 11.68 13.52a25.5 25.5 0 0 0 10-2c3.78-1.53 6.77-1.21 10.44.59 7.2 3.54 14.53 3.68 22-.37 9.34-5.17 17.5-12.11 27.49-17.24z"/><path class="logo-path" d="M407.95 115.84c9.31-.59 19.34 1.14 29.47 1.17a340.72 340.72 0 0 0 35.75-1.53 164.06 164.06 0 0 0 33.83-6.95 121.87 121.87 0 0 0 22.35-9.47c4.67-2.62 4.89-5 .94-8.38-5.41-4.7-12.47-5.45-18.83-7.66-11.61-4-23.54-7.17-35.4-10.5-10.56-3-21-6.55-31.47-10.15-12.27-4.23-24.75-7.85-36.86-12.54-10.24-4-20-8.65-28-16.58-9-8.91-6-22.14 4.77-27.53 6.36-3.18 13.1-4.14 20.11-5.14 10.51-1.48 20.77.31 31.13.42 7 .09 13.91 1.86 20.87 2.86 16.29 2.35 32.23 6.4 48.24 10 8.71 2 17.27 4.59 25.88 7 3 .83 5.2 6.74 4.19 10.63-.77 3-5.67 5-9.51 4-6.29-1.64-12.59-3.26-18.87-4.93-10.19-2.71-19.94-6.75-30.14-9.55-6.49-1.78-12.75-5.49-19.59-6.78a157.52 157.52 0 0 0-19.5-2.39c-5.93-.37-11.78-1.5-17.79-1.16-8 .46-15.92 2-23.81 3.36-2.23.38-4.47 2.15-6.15 3.84-2.27 2.28-1.46 4.73.9 6.7 6.32 5.26 13.65 8.69 21.28 11.47 6.55 2.39 13.22 4.47 19.83 6.71 12.45 4.23 25.23 7.33 37.84 11 11.2 3.27 22.51 6.18 33.66 9.69a229.32 229.32 0 0 1 25.58 9.28c7.65 3.45 15.26 7.21 18.73 15.83 2.5 6.2.52 15.22-4.44 19.69-8.7 7.84-19.57 11.22-30.4 14.33-12.4 3.56-25 6.57-38.1 6.22-7.75-.21-15.48 1.25-23.29 1-18.91-.7-37.87-.57-56.46-4.94-2.05-.48-4.32-.13-6.48-.11-1.69 0-2.94-.52-3.17-2.38a3.08 3.08 0 0 1 1.89-3.62c3.29-1.45 6.43-3.2 10.23-3 3.3.25 6.64.09 10.79.09zM120.13 123.69a210.53 210.53 0 0 0 49.27-3.62c4.63-.89 9.29-1.47 13.87-2.78 3-.87 5.61.3 5.7 4 .17 7.87.79 9.74-11 11.21-14.31 1.8-28.54 5.5-43.12 4.25-17.72-1.52-35.51-1.54-53.23-3.58-8.83-1-17.4-2.9-26-4.53-5.36-1-10.56-3.23-15.61-5.41-8.64-3.72-16.92-8.28-24-14.51C7.91 101.59-.65 94.39 0 81.9c.51-9.13 5.31-16.26 11.19-22.72C24.15 45 40.66 36.33 58 28.7a300.47 300.47 0 0 1 29.68-11A319.22 319.22 0 0 1 130.6 7c18-3.12 36.06-5.77 54.43-5.14 6.07.21 10 3 11.75 8.51 1.33 4.29-.56 7.32-5.07 7.45-8.77.25-17.54-.21-26.3 1a80.4 80.4 0 0 1-12.27.89C128.46 19.1 111 26 87.88 33.41c-18.22 5.87-35.53 13.5-51.5 24.23A49.33 49.33 0 0 0 21 74.18c-1.38 2.38-3.62 3.72-4.45 7.14-2 8.18 1.59 13.28 7.08 17.51C38.54 110.29 55.57 116.55 74 120a196 196 0 0 0 46.13 3.69z"/><path class="logo-path" d="M570.39 58.85c-6.88 0-12.92.49-18.84-.14-5.68-.6-11.51-.14-17.06-1.88a9.44 9.44 0 0 1-3.49-1.61c-1.39-1.26-3.72-2.35-2.8-4.78.82-2.18 3-1.58 4.8-1.58 12 0 24-.09 36 0 4.1 0 6.78-1.54 8.67-5.2 3.43-6.64 7.21-13.1 10.71-19.71 2.39-4.52 6.85-4.35 10.89-5 2.1-.36 1.59 1.55 1.74 2.78.75 6.1-3.9 10.18-5.83 15.28-1.36 3.58-3.81 6.75-6.21 10.85h27.88c1.34 0 3.15-.86 4 .91s-.23 3.33-1.14 4.61c-2 2.79-4.53 4.58-8.3 4.48-6.83-.18-13.68.22-20.49-.15-4.55-.24-7.16 1.83-8.95 5.51-2.76 5.66-5.34 11.4-8.09 17.06-2.55 5.25-5.24 10.43-7.87 15.64-.58 1.15-1.54 2.25-.2 4.1 3.76-3.13 7.8-6 11.16-9.44 3.59-3.71 8-6.24 12.07-9.14 2.7-1.91 7.34 1.63 8 5.49 1 5.47-2.44 9-5.39 12.65-1.36 1.7-2.7 3.27-2.56 5.62a12 12 0 0 0 9.86-11.38 16.24 16.24 0 0 1 1.52-7.13c2.18-4.44 6.61-5 9.5-.81 2.77 4 5.55 5.14 10.64 3.29 12.66-4.62 25.65-8.34 38.5-12.43 4.32-1.37 11.77 1 13.7 4.88 2.11 4.25 1.75 8.25-2.4 11.69-2.12 1.75-3.31 4.61-5.09 7.21 2.42.58 4.64-.41 6.43-1.23a101.7 101.7 0 0 1 10.81-4.4 13.93 13.93 0 0 0 8.38-7c1.43-2.72 4-4.41 6-6.57 2.43-2.57 5.48-2.16 8.17-.73a5.62 5.62 0 0 1 2.45 7.75c-1.5 3.11-2.23 6.84-5.94 8.77-1 .5-3.3 2.4-2.21 4.32 1 1.74 2.42 3.4 5.08 3.38 15.33-.1 30.69.53 46-.31a69.49 69.49 0 0 1 21.14 2.13c-.57-2.72-1.15-5.35 3.29-3 1.34.71 3.22-.08 4.73 1 2.28 1.71 1.93 4.12 0 4.62-4.7 1.2-9.11 3.68-14.17 3.49-20.45-.76-40.85 1-61.29 1-5.45 0-10.41-.68-14.07-5.38-1.55-2-3.54-2.43-6.41-1.83-9.08 1.9-17.82 5.06-27 6.53-4.16.67-8.06.52-10.07-2.68-2.22-3.52.23-7.32 2.66-10.32 3-3.7 6.25-7.2 10.25-11.76-6.22 2-11.48 3.31-16.36 5.46-5.54 2.44-11.52 3.35-17.08 5.75-4.72 2-10.11 2.17-15.15 3.59-4.63 1.31-7 5.07-10.34 7.66-2.48 1.9-4.87 3.88-7.84 4.92-7.18 2.52-12 1.26-15.18-5.41-1.65-3.5-2.91-2.07-4.44-1a65.49 65.49 0 0 1-14.11 7.56c-3.06 1.15-6.74 2.12-8.9 0-2.39-2.33-1.4-6.16-.08-9.29 4.22-10 8.49-20.08 12.71-30.12 2.36-5.82 4.8-11.78 7.61-18.57zM317.6 85.75c-10 5.14-18.15 12.07-27.5 17.17-7.44 4.05-14.77 3.91-22 .38-3.67-1.8-6.66-2.12-10.44-.59a25.5 25.5 0 0 1-10 2c-8.18-.24-10.62-2.77-11.68-13.52-.18-1.81 0-3.66 0-6.61-5.42 3.76-10.08 7.36-15.09 10.38-6.76 4.07-12.35 10.09-20.38 12.1-4.32 1.08-7-1-7.62-5.37-.95-6.3 3.4-10.82 4.71-16.38a3.5 3.5 0 0 0-3.61 0c-10 5-20.82 8.06-31.24 12.08a6.45 6.45 0 0 1-4.38.28c-6.71-2.9-10 1.47-13.72 5.73-4.86 5.52-9.93 10.86-18.56 9.47-5.15-.83-8.15-4.88-6.71-9.93a38.83 38.83 0 0 1 6.62-12.4 127.84 127.84 0 0 0 7.89-11.67c1.61-2.73 4.19-3.73 6.66-4.72 3.87-1.56 6.31.72 5.29 4.78-.36 1.43-1.16 2.71-.64 4.31 1.73 0 2.41-1.54 3.37-2.51 3-3 6-2.76 8.34.34s4.8 3.19 8.11 1.82c11.73-4.83 23.69-9.12 35.22-14.38 4.33-2 8.35-4.39 13.19-4.62 3.42-.16 7.67-.64 9.24 2.88 1.64 3.68-.94 7.32-3.38 10.12s-4.15 6.12-7 9.87c11.42-5.36 21.12-11.76 32.27-15.17 2.64-.8 5.09-1.6 7.32.68s.93 4.58.14 6.9c-.89 2.62-1.77 5.24-2.65 7.86-.49 1.45-.91 3.15.1 4.25s2.79.68 4.21.24a42 42 0 0 0 19.46-12.85 25.56 25.56 0 0 1 8.4-6.62c3.23-1.47 6.63-2.55 9.57.48 2.63 2.71 2.6 8.17.2 11.46-4 5.43-7.15 7.64-15.11 10.37 2.41 2.27 4.4 1.67 6.88 0C295 86.6 307 79 319 71.3a6.57 6.57 0 0 1 10 5.55c.12 5 0 10 0 15s2.45 8.53 7.16 8.85a68.62 68.62 0 0 0 26.6-3.27c2.52-.84 3.19.68 3.81 1.8s1.5 3.51-1.42 3.56c-1.75 0-1.63.64-1.34 2 .22 1-1.16 2.25-1.79 1.89-5.14-3-8.82 2.36-13.45 2.19-5-.18-10 .14-15-.09-4.59-.21-9.56-.48-12-5.11-1.48-2.79-1.83-6.21-2.52-9.38-.6-2.7-.94-5.45-1.45-8.54z"/></g></svg>