<svg xmlns="http://www.w3.org/2000/svg" width="541.817" height="93.754" fill="#fff" viewBox="0 0 541.817 93.754"><path d="M239.718 70.288c-11.272.547-12.244-.971-12.661-12.471-.03-.83.55-5.002.341-5.771-.607-2.236-1.916-2.166-3.644-3.201-2.56.959-3.148 1.342-4.665 2.305a2029.482 2029.482 0 0 0-21.794 14.049c-3.668 2.393-4.23 2.445-7.919-.281 2.134-.73 3.972-1.16 5.767-2.09 2.948-1.525 5.357-4.311 6.966-7.107.806-1.398-.14-4.822-1.473-6.094-.947-.904-4.314-.395-5.81.635-2.964 2.041-5.389 4.867-8.021 7.385-4.166 3.984-8.847 6.58-15.73 6.053 1.139-3.758 2.169-6.85 3.005-9.994 1.068-4.02-.392-5.543-4.287-4.102-4.192 1.549-8.246 3.514-12.248 5.523-4.021 2.02-7.902 4.314-11.844 6.49-.929.326-.762-.277-.553-.752 2.825-4.459 8.832-11.109 8.61-13.59.43-3.52-6.181-3.943-10.611-1.828-9.727 4.641-19.767 8.639-29.765 12.688-1.206.488-3.36.994-4.304-.656-2.833-4.951-5.396-2.229-7.681.547-2.814 3.414-5.499 6.936-8.24 10.412-1.135 1.141-1.541-.047-1.024-.82 2.389-3.57 5.026-7.006 7.034-10.777.732-1.377 2.856-5.73-.121-5.361-2.338.225-3.919.746-4.783 1.924-3.832 5.225-7.521 10.604-10.664 16.258-.931 1.676-.747 5.262.449 6.482 1.325 1.355 4.81 1.969 6.609 1.188 3.264-1.416 6.589-3.621 8.764-6.383 2.797-3.553 5.037-6.316 10.036-4.027 1.074.492 2.904-.383 4.286-.896 8.357-3.115 16.685-6.309 25.488-9.654-1.75 3.568-3.852 6.713-4.772 10.17-.528 1.984-.3 5.652 1.625 6.582 1.397.676 3.763-.242 5.521-1.006 1.949-.846 3.591-2.383 5.405-3.561 5.502-3.574 11.022-7.119 17.054-11.012-.558 14.211 2.624 15.828 18.634 11.455 3.624 1.697 7.407 3.555 11.188 3.551 3.045-.004 6.259-1.955 9.095-3.574 5.866-3.35 16.542-11.49 17.527-10.762.702.146 1.184 6.029 1.809 8.668.706 2.979 1.831 6.354 4.979 6.773 6.112.816 15.39 1.135 19.921-.867 1.146-.506 2.637-2.191 3-3.416.584-1.97-7.191.755-10.499.915z"/><path d="M127.863 81.677c-.778 0-1.663.236-2.686.51-.34.09-.695.186-1.063.275-5.661 1.387-21.62 4.01-41.505 4.01-1.496 0-3.005-.016-4.524-.047-31.778-.688-49.397-8.375-58.582-14.703-7.729-5.324-10.775-9.789-9.589-14.051.174-.629.279-1.295.38-1.941.212-1.357.414-2.639 1.21-3.186 1.608-1.102 2.601-2.699 3.651-4.393.664-1.07 1.35-2.178 2.218-3.18 6.702-7.738 22.356-16.256 42.95-23.369 15.409-5.322 31.563-9.201 45.061-10.908-2.419.492-2.405.652-2.373 1.021.043.5.623.5 1.501.5 2.786 0 11.037-.541 25.969-1.525.349.016.691.023 1.022.023 2.277 0 3.509-.4 3.875-1.26.481-1.134.066-3.192-.985-4.895-1.127-1.824-2.731-2.89-4.517-3.002a95.67 95.67 0 0 0-5.906-.173c-33.425 0-95.46 15.57-116.587 39.97-6.58 7.598-8.951 15.477-6.344 21.076 2.364 5.078 7.645 10.539 15.27 15.793C34.946 91.064 61.083 92.846 86.613 92.85c1.419.6 3.937.904 7.486.904 11.156 0 28.818-2.857 33.579-4.025 1.053-.258 1.875-.979 2.375-2.083.655-1.447.652-3.414-.008-4.68-.453-.867-1.167-1.289-2.182-1.289zM378.959 60.721c-.196-.42-.408-.832-.643-1.252-.185-.301-.371-.56-.563-.827l-.209-.284a13.275 13.275 0 0 0-.639-.814l-.832-.869c-.188-.19-.379-.384-.575-.563l-.666-.564c-1.944-1.604-3.764-2.646-5.128-3.375-1.663-.906-3.287-1.642-4.797-2.303-2.734-1.172-5.6-2.258-9.291-3.521-6.034-2.058-12.097-3.837-18.299-5.632-3.305-.909-6.603-1.8-9.885-2.686-8.977-2.425-17.456-4.714-25.83-7.303a260.822 260.822 0 0 1-8.478-2.767c-3.114-1.031-5.776-1.986-8.141-2.921-2.891-1.14-5.343-2.225-7.495-3.318-2.5-1.268-4.566-2.542-6.142-3.789-.31-.244-.585-.491-.855-.733l-.246-.216a9.318 9.318 0 0 0-.367-.382c-.192-.193-.374-.375-.513-.576-.52-.593-.729-1.064-.847-1.39a1.356 1.356 0 0 0-.065-.174l-.007-.351h-.05l.024-.449.021-.112c.081-.628.226-1.072.486-1.489.332-.545.716-.98 1.2-1.363a11.203 11.203 0 0 1 2.22-1.331c1.567-.742 3.673-1.368 6.258-1.859 4.765-.896 9.987-1.033 14.468-1.05h.244c4.318 0 8.895.204 13.99.625 2.557.203 5.125.724 7.609 1.228 2.008.407 3.904.792 5.776 1.016 2.148.256 4.507 1.406 6.787 2.519 2.14 1.044 4.16 2.029 6.002 2.311 4.132.651 7.838 2.102 11.108 3.381 2.673 1.046 5.198 2.033 7.629 2.481 3.196.607 6.094 1.433 8.423 2.096 1.627.463 3.033.863 4.211 1.104 2.267.463 2.821.144 3.646-.373a8.83 8.83 0 0 1 1.051-.584c.81-.376 1.168-1.369 1.065-2.953-.064-1.005-.64-4.031-1.241-4.222-.06-.019-6.114-1.892-16.624-4.611a470.54 470.54 0 0 0-19.285-4.559c-5.988-1.271-15.135-3.116-25.378-4.452-5.353-.692-10.17-1.132-14.73-1.341A124.998 124.998 0 0 0 288.009 0c-3.885 0-7.339.229-10.564.697-3.358.516-5.872 1.164-8.146 2.101a19.732 19.732 0 0 0-3.839 2.068 12.922 12.922 0 0 0-3.142 3.126c-.836 1.158-1.445 2.565-1.76 4.068l-.146.683c-.018.123-.018.146-.021.2l-.047.617a9.1 9.1 0 0 0-.039.746c.052.758.104 1.541.333 2.25a11.327 11.327 0 0 0 2.049 4.02c.771 1.046 1.73 2.042 3.119 3.237 4.621 3.815 10.254 6.473 15.655 8.778 4.871 2.037 10.198 3.954 17.273 6.216a817.128 817.128 0 0 1 10.596 3.479c6.723 2.243 13.675 4.562 20.471 6.458 1.688.472 3.375.944 5.062 1.421 3.128.877 6.461 1.816 9.809 2.812 2.966.883 5.61 1.71 8.085 2.531 3.421 1.14 6.163 2.152 8.628 3.187.717.308 1.363.378 1.987.446.643.07 1.249.137 1.881.477 1.436.742 2.622 1.502 3.626 2.322 1.199.98 1.912 1.973 2.062 2.863.179 1.164-.807 2.299-1.423 2.885-.333.345-.737.644-1.166.96l-.387.292c-.229.136-.453.278-.677.42-.393.25-.763.486-1.179.692l-.988.525c-.159.093-.368.184-.577.276-.13.058-.261.115-.374.169l-4.074 1.836-2.071.778c-.361.133-.722.27-1.08.406-.991.377-2.017.766-3.062 1.061-.506.153-1.009.312-1.511.47-.899.283-1.798.565-2.694.814l-4.249 1.081c-10.061 2.328-20.998 3.627-33.439 3.969-2.309.07-4.688.106-7.074.106-7.174 0-14.56-.306-23.262-.963 0 0-.921-.035-2.291-.035-4.622 0-10.184 1.077-11.579 2.814-.305.38-.412.825-.31 1.286l.062.279.282.048c3.932.668 8.372 1.306 13.575 1.949 2.148.265 4.694.568 7.287.817 2.128.234 4.252.408 6.5.592l1.115.091c5.011.383 10.286.579 16.123.602.603.008 1.209.011 1.816.011 4.646 0 9.676-.199 15.385-.608l4.101-.104c.978-.088 1.968-.233 2.926-.373.521-.077 1.045-.153 1.574-.223l4.54-.736c.522-.102 1.046-.195 1.571-.289.981-.176 1.996-.357 2.999-.592l4.591-1.071c1.024-.263 2.048-.562 3.073-.861.509-.148 1.019-.298 1.521-.44 1.205-.315 2.485-.774 3.724-1.219l3.449-1.238 4.162-1.77 2.579-1.235 2.589-1.501.425-.302c.748-.527 1.521-1.073 2.351-1.874l.155-.144c.185-.17.365-.338.568-.548.25-.284.497-.574.739-.875l.117-.147c.198-.251.391-.494.595-.796.237-.387.462-.784.662-1.169.501-.854.925-3.052 1.112-3.899.2-.952.235-2.133.095-3.354-.24-1.312-.539-2.31-.878-2.945z"/><path d="M525.135 72.817c-11.484.086-22.969.42-34.454.527-3.523.033-4.924-.58-6.729-4.479 1.316-1.238 2.555-2.33 3.709-3.508 3.227-3.291 4.068-7.633 1.553-9.1-4.016-2.342-6.031 1.068-8.174 3.482-1.412 1.594-2.152 4.281-3.842 5.041-5.818 2.621-11.92 4.611-17.914 6.84 1.996-3.639 4.527-6.271 6.76-9.137 1.93-2.473 1.682-5.336-.832-7.049-1.932-1.314-4.889-2.682-6.852-2.127-9.227 2.611-18.273 5.855-27.365 8.926-3.457 1.166-6.289 1.342-8.09-2.793-.434-.996-2.809-1.787-4.092-1.559-.914.162-1.768 2.111-2.15 3.408-.363 1.227-.002 2.646-.09 3.973-.344 5.189-7.869 10.754-8.465 7.48-.215-5.576 10.832-9.99 2.957-16.281-1.793-1.871-13.484 9.881-20.121 14.904-.935.719-1.31-.172-1.105-.885 4.496-9.189 9.15-18.305 13.398-27.605 1.473-3.227 3.229-4.01 6.57-4.09 10.148-.24 11.854-.135 16.292-.291 2.393-.084 2.99-.486 4.335-3.787.344-.844-7.003-.67-22.847-.264 2.949-5.867 5.763-10.971 7.958-16.111.572-1.342 2.602-5.787-.746-5.078-3.348.711-3.934 1.08-4.625 2.516-1.215 2.525-2.453 4.23-4.146 7.92-1.742 4.359-4.488 8.668-5.817 9.758-2.279 1.871-7.697 1.449-12.782 1.547-6.806.135-21.023-.703-20.555.887 1.108 3.76 9.432 3.307 14.234 3.518 5.391.234 10.797.055 16.76.055-.828 2.115-1.445 3.795-2.137 5.443-4.24 10.117-8.566 20.203-12.67 30.377-.602 1.49-1.838 3.93-.225 5.109 1.686.785 3.748.449 5.162-.254 4.135-2.055 8.031-4.586 12.027-6.936 2.721 6.016 5.846 8.195 11.49 5.715 4.416-1.939 7.873-6.064 10.492-8.191 13.42-2.092 36.954-11.898 37.01-10.369.538.721-6.025 6.631-8.643 10.141-1.076 1.443-1.703 4.443-.904 5.707.768 1.217 3.787 1.814 5.559 1.447 6.666-1.385 13.209-3.35 19.84-4.91 1.209-.283 3.205-.191 3.842.566 3.646 4.326 6.504 5.043 11.582 4.885 10.81-.338 21.612-.885 32.417-1.379 4.676-.215 13.744.203 14.908-.822.736-.645-4.139-3.227-12.483-3.167zM253.154 67.929a.565.565 0 0 0-.507-.293c-.46 0-1.089.57-1.424.91l-.127.129.006.182c.016.545.433 1.572 1.89 1.572h.02c.498-.004.826-.16.977-.469.278-.566-.26-1.271-.652-1.785-.083-.106-.151-.192-.183-.246zm-.163 2.072v.002-.002zM251.474 70.874l-.279.039-.127.152c-.189.227-.225.676-.104 1.338l.048.133c.168.299.41.643.779.643.244 0 .447-.154.544-.414.172-.459.031-1.316-.401-1.693-.153-.134-.303-.198-.46-.198zM541.556 73.479c-.283-.156-2.811-1.535-3.887-1.535-.404 0-.6.18-.693.33-.51.828-.113 1.717-.096 1.754l.07.154.154.062c.074.029 1.797.729 3.076.729 1.236 0 1.527-.66 1.59-1.055l.047-.295-.261-.144zM536.675 71.712c-.027-.035-.289-.328-.619-.328a.546.546 0 0 0-.359.135c-.113.098-.154.225-.107.35.076.209.375.336.619.336.266 0 .453-.141.498-.373l.014-.068-.046-.052z"/></svg>