<svg xmlns="http://www.w3.org/2000/svg" width="121.319" height="259.251" viewBox="0 0 121.319 259.251"><path fill="none" d="M116.591 119.592c-22.289-26.74-44.584-53.474-66.873-80.214-9.598-11.515-19.14-23.075-28.792-34.545C16.927.082 11.581-1.188 6.605 1.117 2.094 3.207-.451 7.887.094 12.988c.318 2.972 1.932 5.255 3.763 7.451 28.911 34.672 57.757 69.398 86.815 103.948 3.216 3.824 3.7 6.004.173 10.18-28.804 34.109-57.282 68.494-85.872 102.784-2.689 3.226-5.356 6.366-4.928 11.036.421 4.599 2.733 7.834 6.781 9.73 4.143 1.94 8.251 1.373 11.672-1.6 2.367-2.057 4.343-4.587 6.367-7.012 30.519-36.573 61.015-73.166 91.521-109.75 2.462-2.954 5.086-5.814 4.908-10.129.307-4.153-2.241-7.08-4.703-10.034z"/><path fill-rule="evenodd" clip-rule="evenodd" d="M121.294 129.628c.306-4.155-2.241-7.082-4.704-10.036-22.289-26.74-44.584-53.474-66.873-80.214-9.598-11.515-19.14-23.075-28.792-34.545C16.926.082 11.58-1.188 6.604 1.117 2.093 3.207-.452 7.887.093 12.988c.318 2.972 1.932 5.255 3.763 7.451 28.911 34.672 57.757 69.398 86.815 103.948 3.216 3.824 3.7 6.004.173 10.18-28.804 34.109-57.282 68.494-85.872 102.784-2.689 3.226-5.356 6.366-4.928 11.036.421 4.599 2.733 7.834 6.781 9.73 4.143 1.94 8.251 1.373 11.672-1.6 2.367-2.057 4.343-4.587 6.367-7.012 30.519-36.573 61.015-73.166 91.521-109.75 2.464-2.952 5.088-5.812 4.909-10.127z"/></svg>