<svg xmlns="http://www.w3.org/2000/svg" width="234.117" height="234.14" viewBox="0 0 234.117 234.14"><path d="M234.113 48.266C234.446 17.635 211.811.207 189.395.132 141.087-.031 92.777-.06 44.469.142 20.211.244.147 20.405.089 44.455-.029 92.929-.03 141.406.09 189.88c.058 23.296 19.239 43.18 42.506 43.976 13.477.461 26.98.225 40.471.216 36.146-.023 72.299.251 108.439-.272 22.157-.321 41.59-19.611 42.088-41.626.564-24.969.13-49.961.13-74.942h.339c-.001-22.989-.201-45.981.05-68.966zm-42.92 24.602c-3.406 4.539-7.339 8.582-11.883 11.975-1.305.974-1.711 1.969-1.706 3.543.083 24.66-8.354 46.053-25.293 63.902-14.593 15.375-32.772 23.654-53.813 25.76-19.397 1.94-37.604-1.783-54.559-11.464a38.235 38.235 0 0 1-2.026-1.249c-.103-.066-.113-.272-.222-.562 16.498 1.398 31.397-2.676 45.196-12.91-6.976-.541-12.919-2.424-18.093-6.34-5.138-3.889-8.807-8.838-10.961-15.264 4.542.631 8.855.837 13.613-.65-7.039-1.788-12.635-5.041-17.053-10.177-4.611-5.359-7.126-11.562-7.512-18.643-.084-1.546.215-1.806 1.644-1.11 3.599 1.753 7.42 2.736 11.9 2.998-13.645-11.596-16.84-25.148-9.294-41.548 4.485 5.25 8.969 9.721 13.989 13.633 14.102 10.992 30.08 17.169 47.872 18.782 2.218.201 2.701-.208 2.337-2.582-1.949-12.685 4.557-25.395 15.916-31.589 11.304-6.166 25.782-4.716 35.39 3.832 2.003 1.782 3.638 2.069 6.098 1.375 5.447-1.536 10.64-3.616 16.092-6.602-2.457 7.331-6.827 12.519-12.62 16.881 1.783-.311 3.58-.559 5.345-.95a65.23 65.23 0 0 0 5.284-1.42c1.799-.562 3.561-1.244 5.592-1.962-.082 1.14-.76 1.71-1.233 2.341z"/></svg>