<?xml version="1.0" encoding="utf-8"?>
<!-- Generator: Adobe Illustrator 16.0.0, SVG Export Plug-In . SVG Version: 6.00 Build 0)  -->
<!DOCTYPE svg PUBLIC "-//W3C//DTD SVG 1.1//EN" "http://www.w3.org/Graphics/SVG/1.1/DTD/svg11.dtd">
<svg version="1.1" id="Layer_1" xmlns="http://www.w3.org/2000/svg" xmlns:xlink="http://www.w3.org/1999/xlink" x="0px" y="0px"
	 width="196.481px" height="225.456px" viewBox="0 0 196.481 225.456" enable-background="new 0 0 196.481 225.456"
	 xml:space="preserve">
<g>
	<path fill="none" d="M113.821,24.664c1.271,2.525,0.833,4.368,0.837,6.133c0.035,23.484,0.064,46.97-0.028,70.455
		c-0.011,2.805,0.352,4.003,3.691,4.124c4.052,0.148,3.671-2.019,3.669-4.613c-0.029-26.983-0.021-53.966-0.005-80.948
		c0.002-2.286-0.151-4.438,1.584-6.544c3.882-4.707,3.871-8.43,0.557-11.373c-3.44-3.057-7.238-2.472-11.642,2.14
		C88.251,29.41,73.814,59.445,69.623,94.345c-1.336,11.124-1.381,10.986,9.78,10.955c3.052-0.008,3.879-0.876,4.086-3.862
		c0.891-12.851,3.617-25.353,8.085-37.443C96.791,49.878,103.837,36.792,113.821,24.664z M114.448,201.325
		c-2.072-2.431-3.354-3.734-4.407-5.201c-14.261-19.852-23.092-41.864-25.985-66.165c-1.149-9.657-0.992-9.541-10.896-9.65
		c-3.348-0.037-4.985,0.512-4.222,4.318c0.587,2.924,0.555,5.966,0.965,8.933c4.733,34.261,19.217,63.773,43.307,88.563
		c3.855,3.967,7.653,4.343,10.935,1.396c3.134-2.815,3.306-6.647,0.021-10.594c-1.747-2.099-2.234-4.232-2.228-6.841
		c0.059-27.16,0.022-54.32,0.049-81.48c0.003-2.427,0.312-4.376-3.419-4.372c-3.593,0.005-3.95,1.416-3.938,4.389
		c0.096,23.327,0.056,46.655,0.043,69.982C114.671,196.379,114.557,198.155,114.448,201.325z M22.651,98.899
		c-7.164,4.116-14.045,8.109-20.968,12.026c-2.619,1.481-1.894,2.532,0.209,3.728c5.493,3.121,10.951,6.307,16.422,9.466
		c5.108,2.949,5.433,2.926,5.043-2.764c-0.296-4.312,1.184-5.128,5.236-5.095c24.646,0.199,49.294,0.124,73.941,0.092
		c21.979-0.03,43.957-0.064,65.935-0.283c2.188-0.021,3.636,0.797,4.722,2.155c6.214,7.768,14.493,4.974,23.289,5.329
		c-1.859-2.144-2.948-3.354-3.988-4.604c-6.142-7.381-5.988-5.152-0.169-12.303c1.103-1.354,2.769-2.312,3.384-5.011
		c-6.651,1.252-13.709-2.529-19.182,2.937c-3.892,3.888-8.053,4.638-13.292,4.612c-43.132-0.204-86.266-0.107-129.398-0.129
		c-3.311-0.002-7.227,0.799-9.704-0.695c-1.468-0.885-0.66-5.538-0.891-8.496C23.231,99.722,23.081,99.59,22.651,98.899z"/>
	<path fill-rule="evenodd" clip-rule="evenodd" d="M113.821,24.664c-9.983,12.128-17.03,25.215-22.247,39.331
		c-4.468,12.091-7.194,24.593-8.085,37.443c-0.207,2.986-1.034,3.854-4.086,3.862c-11.161,0.031-11.116,0.169-9.78-10.955
		c4.191-34.9,18.629-64.936,42.861-90.309c4.403-4.611,8.201-5.196,11.642-2.14c3.314,2.943,3.325,6.666-0.557,11.373
		c-1.735,2.105-1.582,4.258-1.584,6.544c-0.016,26.982-0.024,53.965,0.005,80.948c0.002,2.595,0.383,4.762-3.669,4.613
		c-3.34-0.121-3.702-1.319-3.691-4.124c0.093-23.485,0.063-46.971,0.028-70.455C114.654,29.032,115.091,27.189,113.821,24.664z"/>
	<path fill-rule="evenodd" clip-rule="evenodd" d="M114.448,201.325c0.109-3.17,0.224-4.945,0.225-6.722
		c0.013-23.327,0.053-46.655-0.043-69.982c-0.012-2.973,0.346-4.384,3.938-4.389c3.73-0.004,3.422,1.945,3.419,4.372
		c-0.026,27.16,0.01,54.32-0.049,81.48c-0.007,2.608,0.48,4.742,2.228,6.841c3.284,3.946,3.112,7.778-0.021,10.594
		c-3.281,2.946-7.079,2.57-10.935-1.396c-24.09-24.79-38.573-54.303-43.307-88.563c-0.41-2.967-0.378-6.009-0.965-8.933
		c-0.764-3.807,0.874-4.355,4.222-4.318c9.903,0.109,9.746-0.007,10.896,9.65c2.894,24.301,11.725,46.313,25.985,66.165
		C111.094,197.59,112.375,198.894,114.448,201.325z"/>
	<path fill-rule="evenodd" clip-rule="evenodd" d="M22.651,98.899c0.43,0.691,0.58,0.823,0.59,0.965
		c0.23,2.958-0.577,7.611,0.891,8.496c2.478,1.494,6.394,0.693,9.704,0.695c43.133,0.021,86.267-0.075,129.398,0.129
		c5.239,0.025,9.4-0.725,13.292-4.612c5.473-5.466,12.53-1.685,19.182-2.937c-0.615,2.698-2.281,3.656-3.384,5.011
		c-5.819,7.15-5.973,4.922,0.169,12.303c1.04,1.251,2.129,2.461,3.988,4.604c-8.796-0.355-17.075,2.438-23.289-5.329
		c-1.086-1.358-2.533-2.177-4.722-2.155c-21.978,0.219-43.956,0.253-65.935,0.283c-24.647,0.032-49.296,0.107-73.941-0.092
		c-4.053-0.033-5.532,0.783-5.236,5.095c0.39,5.689,0.065,5.713-5.043,2.764c-5.472-3.159-10.929-6.345-16.422-9.466
		c-2.104-1.195-2.829-2.246-0.209-3.728C8.606,107.008,15.487,103.015,22.651,98.899z"/>
</g>
</svg>
