<?xml version="1.0" encoding="utf-8"?>
<!-- Generator: Adobe Illustrator 16.0.0, SVG Export Plug-In . SVG Version: 6.00 Build 0)  -->
<!DOCTYPE svg PUBLIC "-//W3C//DTD SVG 1.1//EN" "http://www.w3.org/Graphics/SVG/1.1/DTD/svg11.dtd">
<svg version="1.1" id="Layer_1" xmlns="http://www.w3.org/2000/svg" xmlns:xlink="http://www.w3.org/1999/xlink" x="0px" y="0px"
	 width="196.481px" height="225.456px" viewBox="0 0 196.481 225.456" enable-background="new 0 0 196.481 225.456"
	 xml:space="preserve">
<g>
	<path fill="none" d="M104.907,63.995c4.468,12.091,7.194,24.593,8.085,37.443c0.207,2.986,1.034,3.854,4.086,3.862
		c11.161,0.031,11.116,0.169,9.78-10.955c-4.191-34.9-18.629-64.936-42.861-90.309c-4.403-4.611-8.201-5.196-11.642-2.14
		C69.041,4.84,69.03,8.563,72.912,13.27c1.735,2.105,1.582,4.258,1.584,6.544c0.016,26.982,0.024,53.965-0.005,80.948
		c-0.002,2.595-0.383,4.762,3.669,4.613c3.34-0.121,3.702-1.319,3.691-4.124c-0.093-23.485-0.063-46.971-0.028-70.455
		c0.004-1.765-0.434-3.607,0.837-6.133C92.643,36.792,99.69,49.878,104.907,63.995z M81.808,194.603
		c-0.013-23.327-0.053-46.655,0.043-69.982c0.012-2.973-0.346-4.384-3.938-4.389c-3.73-0.004-3.422,1.945-3.419,4.372
		c0.026,27.16-0.01,54.32,0.049,81.48c0.007,2.608-0.48,4.742-2.228,6.841c-3.284,3.946-3.112,7.778,0.021,10.594
		c3.281,2.946,7.079,2.57,10.935-1.396c24.09-24.79,38.573-54.303,43.307-88.563c0.41-2.967,0.378-6.009,0.965-8.933
		c0.764-3.807-0.874-4.355-4.222-4.318c-9.903,0.109-9.746-0.007-10.896,9.65c-2.894,24.301-11.725,46.313-25.985,66.165
		c-1.054,1.467-2.335,2.771-4.407,5.201C81.923,198.155,81.809,196.379,81.808,194.603z M173.24,99.864
		c-0.23,2.958,0.577,7.611-0.891,8.496c-2.478,1.494-6.394,0.693-9.704,0.695c-43.133,0.021-86.267-0.075-129.398,0.129
		c-5.239,0.025-9.4-0.725-13.292-4.612c-5.473-5.466-12.53-1.685-19.182-2.937c0.615,2.698,2.281,3.656,3.384,5.011
		c5.819,7.15,5.973,4.922-0.169,12.303C2.948,120.2,1.859,121.41,0,123.553c8.796-0.355,17.075,2.438,23.289-5.329
		c1.086-1.358,2.533-2.177,4.722-2.155c21.978,0.219,43.956,0.253,65.935,0.283c24.647,0.032,49.296,0.107,73.941-0.092
		c4.053-0.033,5.532,0.783,5.236,5.095c-0.39,5.689-0.065,5.713,5.043,2.764c5.472-3.159,10.929-6.345,16.422-9.466
		c2.104-1.195,2.829-2.246,0.209-3.728c-6.923-3.917-13.804-7.91-20.968-12.026C173.4,99.59,173.25,99.722,173.24,99.864z"/>
	<path fill-rule="evenodd" clip-rule="evenodd" d="M82.66,24.664c9.983,12.128,17.03,25.215,22.247,39.331
		c4.468,12.091,7.194,24.593,8.085,37.443c0.207,2.986,1.034,3.854,4.086,3.862c11.161,0.031,11.116,0.169,9.78-10.955
		c-4.191-34.9-18.629-64.936-42.861-90.309c-4.403-4.611-8.201-5.196-11.642-2.14C69.041,4.84,69.03,8.563,72.912,13.27
		c1.735,2.105,1.582,4.258,1.584,6.544c0.016,26.982,0.024,53.965-0.005,80.948c-0.002,2.595-0.383,4.762,3.669,4.613
		c3.34-0.121,3.702-1.319,3.691-4.124c-0.093-23.485-0.063-46.971-0.028-70.455C81.827,29.032,81.389,27.189,82.66,24.664z"/>
	<path fill-rule="evenodd" clip-rule="evenodd" d="M82.033,201.325c-0.109-3.17-0.224-4.945-0.225-6.722
		c-0.013-23.327-0.053-46.655,0.043-69.982c0.012-2.973-0.346-4.384-3.938-4.389c-3.73-0.004-3.422,1.945-3.419,4.372
		c0.026,27.16-0.01,54.32,0.049,81.48c0.007,2.608-0.48,4.742-2.228,6.841c-3.284,3.946-3.112,7.778,0.021,10.594
		c3.281,2.946,7.079,2.57,10.935-1.396c24.09-24.79,38.573-54.303,43.307-88.563c0.41-2.967,0.378-6.009,0.965-8.933
		c0.764-3.807-0.874-4.355-4.222-4.318c-9.903,0.109-9.746-0.007-10.896,9.65c-2.894,24.301-11.725,46.313-25.985,66.165
		C85.386,197.59,84.105,198.894,82.033,201.325z"/>
	<path fill-rule="evenodd" clip-rule="evenodd" d="M173.83,98.899c-0.43,0.691-0.58,0.823-0.59,0.965
		c-0.23,2.958,0.577,7.611-0.891,8.496c-2.478,1.494-6.394,0.693-9.704,0.695c-43.133,0.021-86.267-0.075-129.398,0.129
		c-5.239,0.025-9.4-0.725-13.292-4.612c-5.473-5.466-12.53-1.685-19.182-2.937c0.615,2.698,2.281,3.656,3.384,5.011
		c5.819,7.15,5.973,4.922-0.169,12.303C2.948,120.2,1.859,121.41,0,123.553c8.796-0.355,17.075,2.438,23.289-5.329
		c1.086-1.358,2.533-2.177,4.722-2.155c21.978,0.219,43.956,0.253,65.935,0.283c24.647,0.032,49.296,0.107,73.941-0.092
		c4.053-0.033,5.532,0.783,5.236,5.095c-0.39,5.689-0.065,5.713,5.043,2.764c5.472-3.159,10.929-6.345,16.422-9.466
		c2.104-1.195,2.829-2.246,0.209-3.728C187.875,107.008,180.994,103.015,173.83,98.899z"/>
</g>
</svg>
