<?xml version="1.0" encoding="utf-8"?>
<!-- Generator: Adobe Illustrator 16.0.0, SVG Export Plug-In . SVG Version: 6.00 Build 0)  -->
<!DOCTYPE svg PUBLIC "-//W3C//DTD SVG 1.1//EN" "http://www.w3.org/Graphics/SVG/1.1/DTD/svg11.dtd">
<svg version="1.1" id="Layer_1" xmlns="http://www.w3.org/2000/svg" xmlns:xlink="http://www.w3.org/1999/xlink" x="0px" y="0px"
	 width="318.092px" height="214.505px" viewBox="0 0 318.092 214.505" enable-background="new 0 0 318.092 214.505"
	 xml:space="preserve">
<g>
	<g>
		<path fill="#FFFFFF" d="M264.726,165.135l-0.188,0.001c-13.212,0.091-24.376,11.447-24.378,24.799
			c-0.001,6.452,2.623,12.589,7.388,17.28c4.775,4.7,11.026,7.289,17.602,7.29l0.146-0.001c6.555-0.038,12.747-2.678,17.438-7.432
			c4.612-4.674,7.125-10.758,7.076-17.13C289.706,176.032,278.687,165.135,264.726,165.135z M123.26,165.148
			c-13.775,0-24.727,10.741-24.933,24.453c-0.098,6.476,2.41,12.652,7.059,17.393c4.723,4.815,10.986,7.482,17.635,7.511l0.11,0.001
			c13.412,0,24.485-10.893,24.685-24.281c0.101-6.721-2.387-13.022-7.003-17.744c-4.574-4.679-10.738-7.282-17.354-7.331
			L123.26,165.148z M22.448,22.602c8.629,0,14.003,5.343,18.123,10.57C51.507,47.049,59.64,60.643,65.434,74.729
			c6.465,15.718,13.546,31.515,20.395,46.792c2.418,5.395,4.836,10.789,7.234,16.192c2.611,5.882,6.215,8.281,12.441,8.281
			c0.331,0,0.667-0.007,1.01-0.021c20.464-0.833,41.271-1.623,61.393-2.387l25.896-0.987v0.03
			c7.009-0.266,14.019-0.534,21.027-0.804c20.117-0.771,40.92-1.567,61.385-2.29c8.327-0.294,11.475-2.582,14.03-10.2
			c2.394-7.135,4.784-14.408,7.096-21.441l2.753-8.368c1.652-5.012,3.312-10.021,4.972-15.031
			c4.075-12.3,8.288-25.019,12.315-37.558c1.176-3.658,0.891-7.282-0.799-10.204c-1.596-2.754-4.33-4.669-7.701-5.39
			c-0.791-0.169-1.588-0.255-2.365-0.255c-5.12,0-9.367,3.582-11.363,9.58c-7.146,21.475-15.245,45.815-22.888,69.645
			c-1.459,4.545-4.122,6.556-8.905,6.725c-55.812,1.974-102.119,3.674-145.734,5.353c-0.189,0.007-0.373,0.011-0.552,0.011
			c-4.97,0-6.909-2.995-8.044-5.604c-10.316-23.72-20.691-47.18-30.726-69.868c-0.188-0.424-0.374-0.853-0.56-1.283
			c-0.979-2.261-1.904-4.396-3.207-6.092C66.372,28.926,57.906,18.235,49.72,7.896l-2.612-3.3c-2.295-2.9-4.998-4.392-8.031-4.433
			l-2.438-0.034C32.129,0.065,27.466,0,22.891,0c-4.713,0-8.852,0.07-12.652,0.216C4.673,0.429,0.081,5.451,0.001,11.409
			c-0.077,5.715,4.12,10.586,9.762,11.33c1.69,0.223,3.675,0.451,5.583,0.451c1.12,0,2.113-0.076,3.035-0.231
			C19.784,22.722,21.152,22.602,22.448,22.602z"/>
	</g>
	<g>
		<path fill="#0e0e0e" d="M22.448,22.602c8.629,0,14.003,5.343,18.123,10.57c10.937,13.877,19.07,27.471,24.863,41.557
			c6.465,15.718,13.546,31.515,20.394,46.791c2.418,5.395,4.837,10.79,7.234,16.193c2.611,5.882,6.215,8.281,12.441,8.281
			c0.331,0,0.667-0.007,1.01-0.021c20.464-0.833,41.271-1.623,61.393-2.387l25.896-0.987v0.03
			c7.004-0.266,14.007-0.534,21.011-0.803c20.123-0.771,40.931-1.568,61.401-2.291c8.327-0.294,11.475-2.582,14.03-10.2
			c2.394-7.135,4.784-14.407,7.096-21.44l2.753-8.369c1.652-5.011,3.312-10.02,4.971-15.029
			c4.076-12.301,8.289-25.021,12.316-37.561c1.176-3.658,0.891-7.282-0.799-10.204c-1.596-2.754-4.33-4.669-7.701-5.39
			c-0.791-0.169-1.588-0.255-2.365-0.255c-5.042,0-9.397,3.671-11.363,9.58c-7.146,21.475-15.244,45.814-22.888,69.645
			c-1.459,4.545-4.122,6.556-8.905,6.725c-55.812,1.974-102.119,3.674-145.734,5.353c-0.189,0.007-0.373,0.011-0.552,0.011
			c-4.97,0-6.91-2.995-8.044-5.604c-10.316-23.72-20.691-47.18-30.726-69.868c-0.188-0.424-0.374-0.853-0.56-1.283
			c-0.979-2.261-1.904-4.396-3.207-6.092c-8.165-10.627-16.631-21.32-24.818-31.66l-2.61-3.297c-2.295-2.9-4.998-4.392-8.031-4.433
			l-2.435-0.034C32.131,0.065,27.468,0,22.891,0c-4.713,0-8.852,0.07-12.652,0.216C4.673,0.429,0.081,5.451,0.001,11.409
			c-0.077,5.715,4.12,10.586,9.762,11.33c1.69,0.223,3.675,0.451,5.583,0.451c1.12,0,2.113-0.076,3.035-0.231
			C19.784,22.722,21.152,22.602,22.448,22.602z"/>
	</g>
	<g>
		<path fill="#0e0e0e" d="M264.726,165.135l-0.188,0.001c-13.212,0.091-24.376,11.447-24.378,24.799c-0.001,6.452,2.622,12.59,7.388,17.281
			c4.774,4.7,11.025,7.289,17.602,7.289l0.146-0.001c6.555-0.038,12.747-2.678,17.438-7.432c4.612-4.674,7.125-10.758,7.076-17.13
			C289.706,176.032,278.687,165.135,264.726,165.135z"/>
	</g>
	<g>
		<path fill="#0e0e0e" d="M123.26,165.148c-13.775,0-24.727,10.741-24.933,24.453c-0.098,6.476,2.409,12.652,7.059,17.393
			c4.723,4.814,10.986,7.482,17.635,7.511l0.11,0.001c13.412,0,24.485-10.893,24.685-24.281c0.101-6.721-2.387-13.021-7.003-17.744
			c-4.575-4.679-10.738-7.282-17.354-7.331L123.26,165.148z"/>
	</g>
</g>
</svg>
