<?xml version="1.0" encoding="utf-8"?>
<!-- Generator: Adobe Illustrator 16.0.0, SVG Export Plug-In . SVG Version: 6.00 Build 0)  -->
<!DOCTYPE svg PUBLIC "-//W3C//DTD SVG 1.1//EN" "http://www.w3.org/Graphics/SVG/1.1/DTD/svg11.dtd">
<svg version="1.1" id="Layer_1" xmlns="http://www.w3.org/2000/svg" xmlns:xlink="http://www.w3.org/1999/xlink" x="0px" y="0px"
	 width="358.512px" height="269.127px" viewBox="0 0 358.512 269.127" enable-background="new 0 0 358.512 269.127"
	 xml:space="preserve">
<g>
	<path fill="none" d="M179.153,269.125c35.828,0,71.657,0.003,107.485-0.002c9.953-0.002,13.416-2.469,16.547-11.785
		c17.955-53.44,35.909-106.882,53.856-160.325c4.261-12.688-0.835-19.878-14.104-19.884c-30.829-0.013-61.658-0.054-92.486,0.065
		c-3.422,0.014-4.797-0.634-5.336-4.446c-2.467-17.482-7.641-34.017-18.194-48.556c-21.58-29.729-66.332-32.559-91.385-5.716
		c-14.011,15.013-19.923,33.572-22.959,53.232c-0.699,4.522-2.179,5.536-6.464,5.511c-30.495-0.178-60.991-0.051-91.487-0.134
		c-5.596-0.015-10.203,1.579-13.111,6.559c-2.496,4.274-1.478,8.644-0.008,13.013c18.026,53.593,36.025,107.195,54.036,160.793
		c3.067,9.127,6.57,11.669,16.125,11.671C107.497,269.13,143.325,269.125,179.153,269.125z"/>
	<path fill-rule="evenodd" clip-rule="evenodd" d="M179.153,269.125c-35.828,0-71.657,0.005-107.485-0.004
		c-9.556-0.002-13.058-2.544-16.125-11.671c-18.011-53.598-36.01-107.2-54.036-160.793c-1.47-4.369-2.488-8.738,0.008-13.013
		c2.908-4.979,7.515-6.573,13.111-6.559c30.496,0.083,60.992-0.044,91.487,0.134c4.285,0.025,5.765-0.988,6.464-5.511
		c3.037-19.66,8.948-38.22,22.959-53.232c25.054-26.843,69.805-24.013,91.385,5.716c10.554,14.539,15.728,31.073,18.194,48.556
		c0.539,3.812,1.914,4.46,5.336,4.446c30.828-0.119,61.657-0.078,92.486-0.065c13.27,0.006,18.365,7.196,14.104,19.884
		c-17.947,53.443-35.901,106.885-53.856,160.325c-3.131,9.316-6.594,11.783-16.547,11.785
		C250.811,269.128,214.981,269.125,179.153,269.125z M178.482,77.125c12.823,0,25.646-0.041,38.471,0.036
		c2.373,0.015,3.803-0.233,3.246-3.201c-2.098-11.186-5.016-22.096-11.207-31.791c-14.205-22.249-44.249-22.938-59.459-1.358
		c-6.962,9.877-9.947,21.286-12.133,32.975c-0.626,3.35,1.172,3.384,3.611,3.371C153.5,77.089,165.991,77.125,178.482,77.125z
		 M137.134,154.125c-9.665,0-19.331,0.104-28.992-0.059c-3.094-0.053-4.426,0.63-4.355,4.076c0.208,10.16,0.158,20.328,0.023,30.49
		c-0.041,3.095,0.716,4.423,4.158,4.397c19.494-0.146,38.991-0.131,58.485-0.008c3.054,0.02,4.006-0.867,3.955-3.941
		c-0.172-10.328-0.218-20.664,0.02-30.989c0.081-3.485-1.229-4.081-4.301-4.027C156.465,154.231,146.799,154.125,137.134,154.125z
		 M219.84,192.959c9.986,0,19.974-0.08,29.958,0.051c2.778,0.037,3.794-0.788,3.757-3.662c-0.135-10.65-0.133-21.304,0-31.954
		c0.033-2.723-0.992-3.322-3.498-3.312c-19.806,0.081-39.611,0.08-59.416,0c-2.495-0.01-3.543,0.567-3.508,3.304
		c0.135,10.649,0.134,21.303,0,31.953c-0.036,2.864,0.959,3.711,3.749,3.672C200.533,192.875,210.188,192.958,219.84,192.959z
		 M137.407,102.125c-9.654,0-19.315,0.198-28.96-0.097c-3.881-0.119-4.762,1.184-4.665,4.803c0.238,8.815,0.169,17.644,0.03,26.463
		c-0.046,2.921,0.729,4.08,3.892,4.06c19.641-0.127,39.283-0.104,58.925-0.014c2.684,0.012,3.833-0.57,3.778-3.551
		c-0.174-9.318-0.214-18.646,0.018-27.962c0.082-3.298-1.195-3.802-4.055-3.758C156.717,102.217,147.062,102.126,137.407,102.125z
		 M220.404,102.126c-9.832,0-19.666,0.079-29.497-0.052c-2.696-0.036-3.839,0.576-3.784,3.553c0.171,9.33,0.15,18.666,0.009,27.996
		c-0.042,2.79,0.784,3.737,3.653,3.722c19.664-0.105,39.33-0.097,58.996-0.007c2.71,0.013,3.832-0.641,3.781-3.593
		c-0.165-9.33-0.153-18.666-0.004-27.996c0.045-2.812-0.793-3.729-3.656-3.684C240.072,102.224,230.237,102.127,220.404,102.126z
		 M137.048,244.125c9.82,0,19.642-0.121,29.458,0.071c3.085,0.061,3.976-0.826,3.908-3.909c-0.199-9.149-0.133-18.308-0.033-27.461
		c0.025-2.358-0.752-3.221-3.139-3.213c-19.973,0.06-39.946,0.062-59.918-0.004c-2.579-0.008-3.52,0.908-3.492,3.492
		c0.097,9.153,0.125,18.31-0.021,27.462c-0.046,2.894,1.037,3.649,3.777,3.612C117.407,244.043,127.228,244.124,137.048,244.125z
		 M220.327,244.125c9.833,0,19.666-0.086,29.496,0.055c2.755,0.04,3.792-0.681,3.739-3.599c-0.166-9.162-0.133-18.331-0.02-27.495
		c0.033-2.584-0.841-3.491-3.436-3.481c-19.832,0.071-39.662,0.069-59.494,0.001c-2.556-0.009-3.504,0.826-3.471,3.447
		c0.117,9.164,0.145,18.333-0.016,27.495c-0.051,2.874,0.904,3.677,3.705,3.635C200.661,244.034,210.495,244.125,220.327,244.125z
		 M299.85,102.126c-8.648,0-17.3,0.11-25.945-0.062c-2.873-0.058-3.665,0.872-3.618,3.672c0.155,9.312,0.157,18.629,0,27.94
		c-0.048,2.834,0.829,3.697,3.657,3.67c13.305-0.127,26.611-0.113,39.917-0.005c2.394,0.02,3.561-0.778,4.29-3.031
		c3.121-9.638,6.296-19.261,9.646-28.821c0.983-2.805,0.261-3.442-2.499-3.404C316.816,102.2,308.332,102.126,299.85,102.126z
		 M58.846,102.126c-8.482,0-16.966,0.072-25.447-0.041c-2.741-0.036-3.5,0.573-2.511,3.396c3.351,9.56,6.523,19.183,9.646,28.819
		c0.728,2.247,1.883,3.062,4.283,3.042c12.972-0.111,25.947-0.124,38.918,0.004c2.816,0.027,3.715-0.814,3.667-3.661
		c-0.16-9.312-0.155-18.628-0.001-27.939c0.046-2.786-0.722-3.744-3.608-3.683C75.48,102.242,67.162,102.126,58.846,102.126z
		 M290.751,154.129c-5.825,0-11.651,0.059-17.476-0.032c-2.05-0.031-2.985,0.504-2.967,2.773c0.088,10.985,0.09,21.971-0.001,32.955
		c-0.02,2.376,0.79,3.204,3.164,3.17c7.321-0.106,14.647-0.099,21.969,0c2.162,0.029,3.27-0.685,3.962-2.809
		c3.601-11.051,7.279-22.077,11.095-33.056c0.898-2.585,0.216-3.1-2.271-3.045C302.404,154.213,296.576,154.127,290.751,154.129z
		 M47.274,154.131c4.181,12.538,8.226,24.633,12.239,36.738c0.578,1.741,1.787,2.12,3.456,2.108
		c7.156-0.052,14.314-0.074,21.47,0.009c2.13,0.024,2.943-0.717,2.93-2.884c-0.068-11.151-0.064-22.303-0.005-33.453
		c0.01-1.99-0.816-2.55-2.673-2.543C72.394,154.155,60.097,154.131,47.274,154.131z M270.344,226.626
		c0,4.316-0.136,8.64,0.07,12.947c0.077,1.62-1.37,4.799,2.017,4.394c3.302-0.395,7.894,2.824,9.761-2.72
		c3.176-9.423,6.232-18.887,9.499-28.277c0.84-2.416,0.457-3.373-2.173-3.344c-5.312,0.06-10.63,0.127-15.938-0.027
		c-2.74-0.08-3.351,1.133-3.273,3.579C270.447,217.657,270.346,222.143,270.344,226.626z M87.339,226.628
		c0-4.648-0.059-9.299,0.027-13.946c0.038-2.014-0.51-3.091-2.757-3.055c-5.146,0.08-10.293,0.023-15.44,0.016
		c-1.957-0.003-3.221,0.302-2.337,2.859c3.412,9.865,6.5,19.847,10.095,29.642c1.518,4.133,5.507,1.521,8.325,1.864
		c3.102,0.377,1.995-2.398,2.042-3.932C87.432,235.597,87.343,231.112,87.339,226.628z"/>
	<path fill-rule="evenodd" clip-rule="evenodd" fill="none" d="M178.482,77.125c-12.491,0-24.982-0.035-37.472,0.031
		c-2.439,0.013-4.237-0.021-3.611-3.371c2.187-11.688,5.171-23.098,12.133-32.975c15.21-21.579,45.254-20.891,59.459,1.358
		c6.191,9.695,9.109,20.605,11.207,31.791c0.557,2.968-0.873,3.216-3.246,3.201C204.129,77.083,191.306,77.125,178.482,77.125z"/>
	<path fill-rule="evenodd" clip-rule="evenodd" fill="none" d="M137.134,154.125c9.665,0,19.331,0.105,28.992-0.061
		c3.073-0.054,4.382,0.542,4.301,4.027c-0.237,10.325-0.191,20.661-0.02,30.989c0.051,3.074-0.901,3.961-3.955,3.941
		c-19.494-0.123-38.991-0.139-58.485,0.008c-3.442,0.025-4.199-1.303-4.158-4.397c0.135-10.162,0.186-20.33-0.023-30.49
		c-0.071-3.446,1.261-4.129,4.355-4.076C117.804,154.229,127.47,154.125,137.134,154.125z"/>
	<path fill-rule="evenodd" clip-rule="evenodd" fill="none" d="M219.84,192.958c-9.652,0-19.307-0.083-28.958,0.053
		c-2.79,0.039-3.785-0.808-3.749-3.672c0.134-10.65,0.135-21.304,0-31.953c-0.035-2.736,1.013-3.313,3.508-3.304
		c19.805,0.08,39.61,0.081,59.416,0c2.506-0.011,3.531,0.589,3.498,3.312c-0.133,10.65-0.135,21.304,0,31.954
		c0.037,2.874-0.979,3.699-3.757,3.662C239.813,192.879,229.826,192.959,219.84,192.958z"/>
	<path fill-rule="evenodd" clip-rule="evenodd" fill="none" d="M137.407,102.125c9.654,0.001,19.31,0.092,28.962-0.056
		c2.859-0.044,4.137,0.46,4.055,3.758c-0.231,9.316-0.191,18.644-0.018,27.962c0.055,2.98-1.095,3.562-3.778,3.551
		c-19.642-0.091-39.284-0.113-58.925,0.014c-3.162,0.021-3.938-1.139-3.892-4.06c0.139-8.819,0.208-17.647-0.03-26.463
		c-0.097-3.619,0.784-4.922,4.665-4.803C118.092,102.324,127.753,102.125,137.407,102.125z"/>
	<path fill-rule="evenodd" clip-rule="evenodd" fill="none" d="M220.404,102.126c9.833,0.001,19.668,0.098,29.498-0.061
		c2.863-0.046,3.701,0.871,3.656,3.684c-0.149,9.33-0.161,18.666,0.004,27.996c0.051,2.952-1.071,3.605-3.781,3.593
		c-19.666-0.09-39.332-0.099-58.996,0.007c-2.869,0.016-3.695-0.932-3.653-3.722c0.142-9.33,0.162-18.666-0.009-27.996
		c-0.055-2.977,1.088-3.589,3.784-3.553C200.738,102.206,210.572,102.126,220.404,102.126z"/>
	<path fill-rule="evenodd" clip-rule="evenodd" fill="none" d="M137.048,244.125c-9.82-0.001-19.641-0.081-29.459,0.051
		c-2.74,0.037-3.823-0.719-3.777-3.612c0.146-9.152,0.118-18.309,0.021-27.462c-0.027-2.584,0.913-3.5,3.492-3.492
		c19.972,0.066,39.945,0.063,59.918,0.004c2.387-0.008,3.164,0.854,3.139,3.213c-0.1,9.153-0.166,18.312,0.033,27.461
		c0.067,3.083-0.823,3.97-3.908,3.909C156.69,244.003,146.868,244.125,137.048,244.125z"/>
	<path fill-rule="evenodd" clip-rule="evenodd" fill="none" d="M220.327,244.125c-9.832,0-19.666-0.091-29.495,0.058
		c-2.801,0.042-3.756-0.761-3.705-3.635c0.16-9.162,0.133-18.331,0.016-27.495c-0.033-2.621,0.915-3.456,3.471-3.447
		c19.832,0.068,39.662,0.07,59.494-0.001c2.595-0.01,3.469,0.897,3.436,3.481c-0.113,9.164-0.146,18.333,0.02,27.495
		c0.053,2.918-0.984,3.639-3.739,3.599C239.993,244.039,230.16,244.125,220.327,244.125z"/>
	<path fill-rule="evenodd" clip-rule="evenodd" fill="none" d="M299.85,102.126c8.482,0,16.967,0.073,25.447-0.041
		c2.76-0.038,3.482,0.6,2.499,3.404c-3.35,9.561-6.524,19.184-9.646,28.821c-0.729,2.253-1.896,3.051-4.29,3.031
		c-13.306-0.108-26.612-0.122-39.917,0.005c-2.828,0.027-3.705-0.836-3.657-3.67c0.157-9.312,0.155-18.629,0-27.94
		c-0.047-2.8,0.745-3.729,3.618-3.672C282.55,102.237,291.201,102.126,299.85,102.126z"/>
	<path fill-rule="evenodd" clip-rule="evenodd" fill="none" d="M58.846,102.126c8.316,0,16.635,0.115,24.947-0.062
		c2.886-0.062,3.654,0.896,3.608,3.683c-0.153,9.312-0.158,18.628,0.001,27.939c0.049,2.847-0.85,3.688-3.667,3.661
		c-12.972-0.128-25.946-0.115-38.918-0.004c-2.4,0.021-3.555-0.795-4.283-3.042c-3.123-9.637-6.295-19.26-9.646-28.819
		c-0.99-2.823-0.23-3.433,2.511-3.396C41.88,102.199,50.363,102.126,58.846,102.126z"/>
	<path fill-rule="evenodd" clip-rule="evenodd" fill="none" d="M290.751,154.128c5.825-0.001,11.653,0.085,17.476-0.042
		c2.486-0.055,3.169,0.46,2.271,3.045c-3.815,10.979-7.494,22.005-11.095,33.056c-0.692,2.124-1.8,2.838-3.962,2.809
		c-7.321-0.099-14.647-0.106-21.969,0c-2.374,0.034-3.184-0.794-3.164-3.17c0.091-10.984,0.089-21.97,0.001-32.955
		c-0.019-2.27,0.917-2.805,2.967-2.773C279.1,154.188,284.926,154.129,290.751,154.128z"/>
	<path fill-rule="evenodd" clip-rule="evenodd" fill="none" d="M47.274,154.131c12.823,0,25.12,0.023,37.417-0.024
		c1.856-0.007,2.683,0.553,2.673,2.543c-0.059,11.15-0.063,22.302,0.005,33.453c0.013,2.167-0.8,2.908-2.93,2.884
		c-7.156-0.083-14.313-0.061-21.47-0.009c-1.669,0.012-2.878-0.367-3.456-2.108C55.5,178.764,51.456,166.669,47.274,154.131z"/>
	<path fill-rule="evenodd" clip-rule="evenodd" fill="none" d="M270.345,226.626c0.001-4.483,0.103-8.97-0.039-13.448
		c-0.077-2.446,0.533-3.659,3.273-3.579c5.309,0.154,10.626,0.087,15.938,0.027c2.63-0.029,3.013,0.928,2.173,3.344
		c-3.267,9.391-6.323,18.854-9.499,28.277c-1.867,5.544-6.459,2.325-9.761,2.72c-3.387,0.405-1.939-2.773-2.017-4.394
		C270.208,235.266,270.344,230.943,270.345,226.626z"/>
	<path fill-rule="evenodd" clip-rule="evenodd" fill="none" d="M87.341,226.628c0.002,4.483,0.091,8.969-0.047,13.448
		c-0.047,1.533,1.06,4.309-2.042,3.932c-2.818-0.343-6.808,2.269-8.325-1.864c-3.596-9.795-6.683-19.776-10.095-29.642
		c-0.884-2.558,0.38-2.862,2.337-2.859c5.147,0.008,10.295,0.064,15.44-0.016c2.247-0.036,2.794,1.041,2.757,3.055
		C87.28,217.33,87.339,221.98,87.341,226.628z"/>
</g>
</svg>
