<?xml version="1.0" encoding="utf-8"?>
<!-- Generator: Adobe Illustrator 16.0.0, SVG Export Plug-In . SVG Version: 6.00 Build 0)  -->
<!DOCTYPE svg PUBLIC "-//W3C//DTD SVG 1.1//EN" "http://www.w3.org/Graphics/SVG/1.1/DTD/svg11.dtd">
<svg version="1.1" id="Layer_1" xmlns="http://www.w3.org/2000/svg" xmlns:xlink="http://www.w3.org/1999/xlink" x="0px" y="0px"
	 width="234.117px" height="234.14px" viewBox="0 0 234.117 234.14" enable-background="new 0 0 234.117 234.14"
	 xml:space="preserve">
<g>
	<path fill="none" d="M233.724,117.231c0.113,0,0.227,0,0.339,0c0-22.988-0.2-45.979,0.051-68.965
		c0.333-30.631-22.302-48.059-44.718-48.134C141.087-0.031,92.777-0.06,44.469,0.142C20.211,0.244,0.147,20.405,0.089,44.455
		C-0.029,92.929-0.03,141.406,0.09,189.88c0.058,23.296,19.239,43.18,42.506,43.976c13.477,0.461,26.98,0.225,40.471,0.216
		c36.146-0.023,72.299,0.251,108.439-0.272c22.157-0.321,41.59-19.611,42.088-41.626
		C234.158,167.205,233.724,142.212,233.724,117.231z"/>
	<path fill-rule="evenodd" clip-rule="evenodd" d="M233.724,117.231c0,24.981,0.435,49.974-0.13,74.942
		c-0.498,22.015-19.931,41.305-42.088,41.626c-36.141,0.523-72.293,0.249-108.439,0.272c-13.491,0.009-26.994,0.245-40.471-0.216
		C19.329,233.06,0.147,213.176,0.09,189.88c-0.12-48.475-0.119-96.951-0.001-145.426c0.058-24.05,20.123-44.211,44.38-44.312
		c48.308-0.202,96.618-0.173,144.927-0.01c22.416,0.075,45.051,17.503,44.718,48.134c-0.251,22.985-0.051,45.977-0.051,68.965
		C233.95,117.231,233.837,117.231,233.724,117.231z M127.055,151.921c0-10.494,0.082-20.99-0.052-31.483
		c-0.037-2.94,0.737-4.265,3.911-4.074c3.816,0.229,7.658,0.052,11.49,0.052c13.461-0.001,13.359,0.002,13.062-13.448
		c-0.068-3.095-1.033-4.018-4.042-3.941c-6.991,0.177-13.992,0.005-20.987,0.081c-2.17,0.023-3.472-0.426-3.4-2.981
		c0.167-5.99-0.107-12.005,0.33-17.971c0.473-6.452,3.93-9.472,10.43-9.696c4.492-0.155,8.998-0.152,13.491-0.009
		c2.854,0.092,4.365-0.621,4.154-3.878c-0.236-3.649-0.2-7.334-0.006-10.988c0.149-2.793-0.761-3.801-3.647-3.727
		c-6.992,0.179-13.991,0.01-20.987,0.067c-12.896,0.106-23.274,9.594-24.332,22.439c-0.409,4.968-0.367,9.979-0.389,14.971
		c-0.051,11.746-0.016,11.747-11.6,11.747c-13.28,0-13.131-0.002-13.021,13.336c0.029,3.55,1.408,4.136,4.402,4.039
		c4.992-0.162,10.012,0.221,14.985-0.123c4.149-0.286,5.358,1.057,5.313,5.249c-0.213,19.987-0.03,39.979-0.156,59.968
		c-0.021,3.331,0.727,4.857,4.385,4.598c4.144-0.295,8.336-0.255,12.485-0.009c3.29,0.195,4.296-0.98,4.239-4.234
		C126.936,171.914,127.049,161.917,127.055,151.921z"/>
</g>
</svg>
