<?xml version="1.0" encoding="utf-8"?>
<!-- Generator: Adobe Illustrator 16.0.0, SVG Export Plug-In . SVG Version: 6.00 Build 0)  -->
<!DOCTYPE svg PUBLIC "-//W3C//DTD SVG 1.1//EN" "http://www.w3.org/Graphics/SVG/1.1/DTD/svg11.dtd">
<svg version="1.1" id="Layer_1" xmlns="http://www.w3.org/2000/svg" xmlns:xlink="http://www.w3.org/1999/xlink" x="0px" y="0px"
	 width="234.117px" height="234.14px" viewBox="0 0 234.117 234.14" enable-background="new 0 0 234.117 234.14"
	 xml:space="preserve">
<g>
	<path fill="none" d="M116.665,233.67c24.881,0,49.761,0,74.641,0c25.244-0.001,42.362-17.054,42.363-42.212
		c0.005-49.761,0.003-99.521,0.001-149.283c-0.001-24.981-17.135-42.171-42.039-42.173C141.75,0,91.869,0,41.987,0.002
		C17.257,0.003,0.006,17.198,0.004,41.849c-0.005,50.001-0.005,100.003,0,150.003c0.002,24.479,17.268,41.808,41.659,41.816
		C66.663,233.675,91.665,233.67,116.665,233.67z"/>
	<path fill-rule="evenodd" clip-rule="evenodd" d="M116.665,233.67c-25,0-50.001,0.005-75.001-0.001
		c-24.392-0.008-41.657-17.337-41.659-41.816c-0.005-50-0.005-100.002,0-150.003C0.006,17.198,17.257,0.003,41.987,0.002
		C91.869,0,141.75,0,191.631,0.002c24.903,0.001,42.038,17.191,42.039,42.173c0.002,49.761,0.004,99.521-0.001,149.283
		c-0.001,25.158-17.119,42.211-42.363,42.212C166.426,233.67,141.545,233.67,116.665,233.67z M116.73,210.591
		c0-0.034,0-0.068,0-0.103c21.273,0,42.552,0.312,63.816-0.103c15.535-0.303,27.85-13.025,27.948-28.353
		c0.176-27.522,0.03-55.047,0.094-82.571c0.005-2.149-0.507-2.917-2.793-2.873c-7.449,0.143-14.906,0.183-22.354-0.014
		c-2.827-0.074-2.785,1.016-2.2,3.113c2.69,9.65,2.941,19.412,1.231,29.262c-7.695,44.353-58.874,68.537-97.966,46.281
		C57.344,159.768,44.705,130,52.473,99.549c0.638-2.5,0.028-3.004-2.395-2.956c-7.089,0.139-14.188,0.209-21.271-0.026
		c-3.03-0.1-3.766,0.782-3.752,3.77c0.12,26.802,0.062,53.605,0.089,80.408c0.002,1.914,0.069,3.864,0.427,5.736
		c2.774,14.535,14.59,24.018,30.222,24.088C76.105,210.66,96.418,210.591,116.73,210.591z M75.128,116.928
		c0.002,22.961,18.716,41.594,41.796,41.619c22.737,0.023,41.597-18.752,41.621-41.436c0.023-23.265-18.63-42.001-41.802-41.984
		C93.783,75.143,75.125,93.885,75.128,116.928z M208.546,48.612c0-4.442,0.024-8.885-0.006-13.327
		c-0.032-4.476-1.835-6.383-6.287-6.415c-8.764-0.063-17.53-0.065-26.294,0c-4.27,0.033-6.278,1.933-6.322,6.114
		c-0.094,8.884-0.087,17.77-0.004,26.654c0.041,4.298,1.96,6.126,6.213,6.144c8.885,0.037,17.77,0.037,26.655,0
		c4.268-0.018,5.995-1.816,6.036-6.203C208.577,57.257,208.546,52.935,208.546,48.612z"/>
</g>
</svg>
