<?xml version="1.0" encoding="utf-8"?>
<!-- Generator: Adobe Illustrator 16.0.0, SVG Export Plug-In . SVG Version: 6.00 Build 0)  -->
<!DOCTYPE svg PUBLIC "-//W3C//DTD SVG 1.1//EN" "http://www.w3.org/Graphics/SVG/1.1/DTD/svg11.dtd">
<svg version="1.1" id="Layer_1" xmlns="http://www.w3.org/2000/svg" xmlns:xlink="http://www.w3.org/1999/xlink" x="0px" y="0px"
	 width="121.319px" height="259.251px" viewBox="0 0 121.319 259.251" enable-background="new 0 0 121.319 259.251"
	 xml:space="preserve">
<g>
	<path fill="none" d="M0.025,129.628c-0.179,4.314,2.445,7.175,4.908,10.129c30.507,36.584,61.003,73.177,91.521,109.75
		c2.023,2.425,4,4.955,6.367,7.012c3.42,2.973,7.529,3.54,11.672,1.6c4.048-1.896,6.36-5.132,6.781-9.73
		c0.428-4.67-2.239-7.811-4.928-11.036c-28.59-34.29-57.068-68.675-85.872-102.784c-3.527-4.176-3.043-6.355,0.173-10.18
		c29.058-34.55,57.904-69.276,86.815-103.948c1.831-2.196,3.445-4.479,3.763-7.451c0.545-5.102-2-9.781-6.511-11.871
		c-4.976-2.305-10.322-1.035-14.321,3.716c-9.651,11.47-19.194,23.03-28.792,34.545c-22.288,26.74-44.584,53.474-66.873,80.214
		C2.266,122.546-0.281,125.473,0.025,129.628z"/>
	<path fill-rule="evenodd" clip-rule="evenodd" d="M0.025,129.628c-0.306-4.155,2.241-7.082,4.704-10.036
		c22.289-26.74,44.584-53.474,66.873-80.214c9.598-11.515,19.14-23.075,28.792-34.545c3.999-4.751,9.345-6.021,14.321-3.716
		c4.511,2.09,7.056,6.77,6.511,11.871c-0.318,2.972-1.932,5.255-3.763,7.451C88.551,55.112,59.705,89.838,30.647,124.388
		c-3.216,3.824-3.7,6.004-0.173,10.18c28.804,34.109,57.282,68.494,85.872,102.784c2.689,3.226,5.356,6.366,4.928,11.036
		c-0.421,4.599-2.733,7.834-6.781,9.73c-4.143,1.94-8.251,1.373-11.672-1.6c-2.367-2.057-4.343-4.587-6.367-7.012
		c-30.519-36.573-61.015-73.166-91.521-109.75C2.47,136.803-0.154,133.943,0.025,129.628z"/>
</g>
</svg>
