<?xml version="1.0" encoding="utf-8"?>
<!-- Generator: Adobe Illustrator 16.0.0, SVG Export Plug-In . SVG Version: 6.00 Build 0)  -->
<!DOCTYPE svg PUBLIC "-//W3C//DTD SVG 1.1//EN" "http://www.w3.org/Graphics/SVG/1.1/DTD/svg11.dtd">
<svg version="1.1" id="Layer_1" xmlns="http://www.w3.org/2000/svg" xmlns:xlink="http://www.w3.org/1999/xlink" x="0px" y="0px"
	 width="541.817px" height="93.754px" viewBox="0 0 541.817 93.754" enable-background="new 0 0 541.817 93.754"
	 xml:space="preserve">
<path d="M239.718,70.288c-11.272,0.547-12.244-0.971-12.661-12.471c-0.03-0.83,0.55-5.002,0.341-5.771
	c-0.607-2.236-1.916-2.166-3.644-3.201c-2.56,0.959-3.148,1.342-4.665,2.305c-7.297,4.631-14.555,9.324-21.794,14.049
	c-3.668,2.393-4.23,2.445-7.919-0.281c2.134-0.73,3.972-1.16,5.767-2.09c2.948-1.525,5.357-4.311,6.966-7.107
	c0.806-1.398-0.14-4.822-1.473-6.094c-0.947-0.904-4.314-0.395-5.81,0.635c-2.964,2.041-5.389,4.867-8.021,7.385
	c-4.166,3.984-8.847,6.58-15.73,6.053c1.139-3.758,2.169-6.85,3.005-9.994c1.068-4.02-0.392-5.543-4.287-4.102
	c-4.192,1.549-8.246,3.514-12.248,5.523c-4.021,2.02-7.902,4.314-11.844,6.49c-0.929,0.326-0.762-0.277-0.553-0.752
	c2.825-4.459,8.832-11.109,8.61-13.59c0.43-3.52-6.181-3.943-10.611-1.828c-9.727,4.641-19.767,8.639-29.765,12.688
	c-1.206,0.488-3.36,0.994-4.304-0.656c-2.833-4.951-5.396-2.229-7.681,0.547c-2.814,3.414-5.499,6.936-8.24,10.412
	c-1.135,1.141-1.541-0.047-1.024-0.82c2.389-3.57,5.026-7.006,7.034-10.777c0.732-1.377,2.856-5.73-0.121-5.361
	c-2.338,0.225-3.919,0.746-4.783,1.924c-3.832,5.225-7.521,10.604-10.664,16.258c-0.931,1.676-0.747,5.262,0.449,6.482
	c1.325,1.355,4.81,1.969,6.609,1.188c3.264-1.416,6.589-3.621,8.764-6.383c2.797-3.553,5.037-6.316,10.036-4.027
	c1.074,0.492,2.904-0.383,4.286-0.896c8.357-3.115,16.685-6.309,25.488-9.654c-1.75,3.568-3.852,6.713-4.772,10.17
	c-0.528,1.984-0.3,5.652,1.625,6.582c1.397,0.676,3.763-0.242,5.521-1.006c1.949-0.846,3.591-2.383,5.405-3.561
	c5.502-3.574,11.022-7.119,17.054-11.012c-0.558,14.211,2.624,15.828,18.634,11.455c3.624,1.697,7.407,3.555,11.188,3.551
	c3.045-0.004,6.259-1.955,9.095-3.574c5.866-3.35,16.542-11.49,17.527-10.762c0.702,0.146,1.184,6.029,1.809,8.668
	c0.706,2.979,1.831,6.354,4.979,6.773c6.112,0.816,15.39,1.135,19.921-0.867c1.146-0.506,2.637-2.191,3-3.416
	C250.801,67.403,243.026,70.128,239.718,70.288z"/>
<path d="M127.863,81.677c-0.778,0-1.663,0.236-2.686,0.51c-0.34,0.09-0.695,0.186-1.063,0.275c-5.661,1.387-21.62,4.01-41.505,4.01
	c-1.496,0-3.005-0.016-4.524-0.047c-31.778-0.688-49.397-8.375-58.582-14.703c-7.729-5.324-10.775-9.789-9.589-14.051
	c0.174-0.629,0.279-1.295,0.38-1.941c0.212-1.357,0.414-2.639,1.21-3.186c1.608-1.102,2.601-2.699,3.651-4.393
	c0.664-1.07,1.35-2.178,2.218-3.18c6.702-7.738,22.356-16.256,42.95-23.369c15.409-5.322,31.563-9.201,45.061-10.908
	c-2.419,0.492-2.405,0.652-2.373,1.021c0.043,0.5,0.623,0.5,1.501,0.5c2.786,0,11.037-0.541,25.969-1.525
	c0.349,0.016,0.691,0.023,1.022,0.023c0,0,0,0,0,0c2.277,0,3.509-0.4,3.875-1.26c0.481-1.134,0.066-3.192-0.985-4.895
	c-1.127-1.824-2.731-2.89-4.517-3.002c-1.847-0.115-3.833-0.173-5.906-0.173c-33.425,0-95.46,15.57-116.587,39.97
	c-6.58,7.598-8.951,15.477-6.344,21.076c2.364,5.078,7.645,10.539,15.27,15.793C34.946,91.064,61.083,92.846,86.613,92.85
	c1.419,0.6,3.937,0.904,7.486,0.904c11.156,0,28.818-2.857,33.579-4.025c1.053-0.258,1.875-0.979,2.375-2.083
	c0.655-1.447,0.652-3.414-0.008-4.68C129.592,82.099,128.878,81.677,127.863,81.677z"/>
<path d="M378.959,60.721c-0.196-0.42-0.408-0.832-0.643-1.252c-0.185-0.301-0.371-0.56-0.563-0.827l-0.209-0.284
	c-0.205-0.276-0.421-0.565-0.639-0.814l-0.832-0.869c-0.188-0.19-0.379-0.384-0.575-0.563l-0.666-0.564
	c-1.944-1.604-3.764-2.646-5.128-3.375c-1.663-0.906-3.287-1.642-4.797-2.303c-2.734-1.172-5.6-2.258-9.291-3.521
	c-6.034-2.058-12.097-3.837-18.299-5.632c-3.305-0.909-6.603-1.8-9.885-2.686c-8.977-2.425-17.456-4.714-25.83-7.303
	c-2.795-0.859-5.646-1.789-8.478-2.767c-3.114-1.031-5.776-1.986-8.141-2.921c-2.891-1.14-5.343-2.225-7.495-3.318
	c-2.5-1.268-4.566-2.542-6.142-3.789c-0.31-0.244-0.585-0.491-0.855-0.733l-0.246-0.216c-0.114-0.128-0.241-0.256-0.367-0.382
	c-0.192-0.193-0.374-0.375-0.513-0.576c-0.52-0.593-0.729-1.064-0.847-1.39c-0.015-0.05-0.031-0.097-0.065-0.174l-0.007-0.351h-0.05
	l0.024-0.449l0.021-0.112c0.081-0.628,0.226-1.072,0.486-1.489c0.332-0.545,0.716-0.98,1.2-1.363
	c0.527-0.396,1.254-0.902,2.22-1.331c1.567-0.742,3.673-1.368,6.258-1.859c4.765-0.896,9.987-1.033,14.468-1.05h0.244
	c4.318,0,8.895,0.204,13.99,0.625c2.557,0.203,5.125,0.724,7.609,1.228c2.008,0.407,3.904,0.792,5.776,1.016
	c2.148,0.256,4.507,1.406,6.787,2.519c2.14,1.044,4.16,2.029,6.002,2.311c4.132,0.651,7.838,2.102,11.108,3.381
	c2.673,1.046,5.198,2.033,7.629,2.481c3.196,0.607,6.094,1.433,8.423,2.096c1.627,0.463,3.033,0.863,4.211,1.104
	c2.267,0.463,2.821,0.144,3.646-0.373c0.279-0.175,0.596-0.373,1.051-0.584c0.81-0.376,1.168-1.369,1.065-2.953
	c-0.064-1.005-0.64-4.031-1.241-4.222c-0.06-0.019-6.114-1.892-16.624-4.611c-6.871-1.767-12.999-3.216-19.285-4.559
	c-5.988-1.271-15.135-3.116-25.378-4.452c-5.353-0.692-10.17-1.132-14.73-1.341C291.388,0.04,289.638,0,288.009,0
	c-3.885,0-7.339,0.229-10.564,0.697c-3.358,0.516-5.872,1.164-8.146,2.101c-1.291,0.513-2.581,1.207-3.839,2.068
	c-1.224,0.857-2.282,1.911-3.142,3.126c-0.836,1.158-1.445,2.565-1.76,4.068l-0.146,0.683c-0.018,0.123-0.018,0.146-0.021,0.2
	l-0.047,0.617c-0.019,0.221-0.036,0.442-0.039,0.746c0.052,0.758,0.104,1.541,0.333,2.25c0.387,1.426,1.098,2.82,2.049,4.02
	c0.771,1.046,1.73,2.042,3.119,3.237c4.621,3.815,10.254,6.473,15.655,8.778c4.871,2.037,10.198,3.954,17.273,6.216
	c3.483,1.108,7.099,2.313,10.596,3.479c6.723,2.243,13.675,4.562,20.471,6.458c1.688,0.472,3.375,0.944,5.062,1.421
	c3.128,0.877,6.461,1.816,9.809,2.812c2.966,0.883,5.61,1.71,8.085,2.531c3.421,1.14,6.163,2.152,8.628,3.187
	c0.717,0.308,1.363,0.378,1.987,0.446c0.643,0.07,1.249,0.137,1.881,0.477c1.436,0.742,2.622,1.502,3.626,2.322
	c1.199,0.98,1.912,1.973,2.062,2.863c0.179,1.164-0.807,2.299-1.423,2.885c-0.333,0.345-0.737,0.644-1.166,0.96l-0.387,0.292
	c-0.229,0.136-0.453,0.278-0.677,0.42c-0.393,0.25-0.763,0.486-1.179,0.692l-0.988,0.525c-0.159,0.093-0.368,0.184-0.577,0.276
	c-0.13,0.058-0.261,0.115-0.374,0.169l-4.074,1.836l-2.071,0.778c-0.361,0.133-0.722,0.27-1.08,0.406
	c-0.991,0.377-2.017,0.766-3.062,1.061c-0.506,0.153-1.009,0.312-1.511,0.47c-0.899,0.283-1.798,0.565-2.694,0.814l-4.249,1.081
	c-10.061,2.328-20.998,3.627-33.439,3.969c-2.309,0.07-4.688,0.106-7.074,0.106c-7.174,0-14.56-0.306-23.262-0.963
	c0,0-0.921-0.035-2.291-0.035c-4.622,0-10.184,1.077-11.579,2.814c-0.305,0.38-0.412,0.825-0.31,1.286l0.062,0.279l0.282,0.048
	c3.932,0.668,8.372,1.306,13.575,1.949c2.148,0.265,4.694,0.568,7.287,0.817c2.128,0.234,4.252,0.408,6.5,0.592l1.115,0.091
	c5.011,0.383,10.286,0.579,16.123,0.602c0.603,0.008,1.209,0.011,1.816,0.011c4.646,0,9.676-0.199,15.385-0.608l4.101-0.104
	c0.978-0.088,1.968-0.233,2.926-0.373c0.521-0.077,1.045-0.153,1.574-0.223l4.54-0.736c0.522-0.102,1.046-0.195,1.571-0.289
	c0.981-0.176,1.996-0.357,2.999-0.592l4.591-1.071c1.024-0.263,2.048-0.562,3.073-0.861c0.509-0.148,1.019-0.298,1.521-0.44
	c1.205-0.315,2.485-0.774,3.724-1.219l3.449-1.238l4.162-1.77l2.579-1.235l2.589-1.501l0.425-0.302
	c0.748-0.527,1.521-1.073,2.351-1.874l0.155-0.144c0.185-0.17,0.365-0.338,0.568-0.548c0.25-0.284,0.497-0.574,0.739-0.875
	l0.117-0.147c0.198-0.251,0.391-0.494,0.595-0.796c0.237-0.387,0.462-0.784,0.662-1.169c0.501-0.854,0.925-3.052,1.112-3.899
	c0.2-0.952,0.235-2.133,0.095-3.354C379.597,62.354,379.298,61.356,378.959,60.721z"/>
<path d="M525.135,72.817c-11.484,0.086-22.969,0.42-34.454,0.527c-3.523,0.033-4.924-0.58-6.729-4.479
	c1.316-1.238,2.555-2.33,3.709-3.508c3.227-3.291,4.068-7.633,1.553-9.1c-4.016-2.342-6.031,1.068-8.174,3.482
	c-1.412,1.594-2.152,4.281-3.842,5.041c-5.818,2.621-11.92,4.611-17.914,6.84c1.996-3.639,4.527-6.271,6.76-9.137
	c1.93-2.473,1.682-5.336-0.832-7.049c-1.932-1.314-4.889-2.682-6.852-2.127c-9.227,2.611-18.273,5.855-27.365,8.926
	c-3.457,1.166-6.289,1.342-8.09-2.793c-0.434-0.996-2.809-1.787-4.092-1.559c-0.914,0.162-1.768,2.111-2.15,3.408
	c-0.363,1.227-0.002,2.646-0.09,3.973c-0.344,5.189-7.869,10.754-8.465,7.48c-0.215-5.576,10.832-9.99,2.957-16.281
	c-1.793-1.871-13.484,9.881-20.121,14.904c-0.935,0.719-1.31-0.172-1.105-0.885c4.496-9.189,9.15-18.305,13.398-27.605
	c1.473-3.227,3.229-4.01,6.57-4.09c10.148-0.24,11.854-0.135,16.292-0.291c2.393-0.084,2.99-0.486,4.335-3.787
	c0.344-0.844-7.003-0.67-22.847-0.264c2.949-5.867,5.763-10.971,7.958-16.111c0.572-1.342,2.602-5.787-0.746-5.078
	c-3.348,0.711-3.934,1.08-4.625,2.516c-1.215,2.525-2.453,4.23-4.146,7.92c-1.742,4.359-4.488,8.668-5.817,9.758
	c-2.279,1.871-7.697,1.449-12.782,1.547c-6.806,0.135-21.023-0.703-20.555,0.887c1.108,3.76,9.432,3.307,14.234,3.518
	c5.391,0.234,10.797,0.055,16.76,0.055c-0.828,2.115-1.445,3.795-2.137,5.443c-4.24,10.117-8.566,20.203-12.67,30.377
	c-0.602,1.49-1.838,3.93-0.225,5.109c1.686,0.785,3.748,0.449,5.162-0.254c4.135-2.055,8.031-4.586,12.027-6.936
	c2.721,6.016,5.846,8.195,11.49,5.715c4.416-1.939,7.873-6.064,10.492-8.191c13.42-2.092,36.954-11.898,37.01-10.369
	c0.538,0.721-6.025,6.631-8.643,10.141c-1.076,1.443-1.703,4.443-0.904,5.707c0.768,1.217,3.787,1.814,5.559,1.447
	c6.666-1.385,13.209-3.35,19.84-4.91c1.209-0.283,3.205-0.191,3.842,0.566c3.646,4.326,6.504,5.043,11.582,4.885
	c10.81-0.338,21.612-0.885,32.417-1.379c4.676-0.215,13.744,0.203,14.908-0.822C538.354,75.339,533.479,72.757,525.135,72.817z"/>
<path d="M253.154,67.929c-0.104-0.186-0.289-0.293-0.507-0.293c-0.46,0-1.089,0.57-1.424,0.91l-0.127,0.129l0.006,0.182
	c0.016,0.545,0.433,1.572,1.89,1.572h0.02c0.498-0.004,0.826-0.16,0.977-0.469c0.278-0.566-0.26-1.271-0.652-1.785
	C253.254,68.069,253.186,67.983,253.154,67.929z M252.991,70.001L252.991,70.001v0.002V70.001z"/>
<path d="M251.474,70.874l-0.279,0.039l-0.127,0.152c-0.189,0.227-0.225,0.676-0.104,1.338l0.048,0.133
	c0.168,0.299,0.41,0.643,0.779,0.643c0.244,0,0.447-0.154,0.544-0.414c0.172-0.459,0.031-1.316-0.401-1.693
	C251.781,70.938,251.631,70.874,251.474,70.874z"/>
<path d="M541.556,73.479c-0.283-0.156-2.811-1.535-3.887-1.535c-0.404,0-0.6,0.18-0.693,0.33c-0.51,0.828-0.113,1.717-0.096,1.754
	l0.07,0.154l0.154,0.062c0.074,0.029,1.797,0.729,3.076,0.729c1.236,0,1.527-0.66,1.59-1.055l0.047-0.295L541.556,73.479z"/>
<path d="M536.675,71.712c-0.027-0.035-0.289-0.328-0.619-0.328c-0.131,0-0.252,0.045-0.359,0.135
	c-0.113,0.098-0.154,0.225-0.107,0.35c0.076,0.209,0.375,0.336,0.619,0.336c0.266,0,0.453-0.141,0.498-0.373l0.014-0.068
	L536.675,71.712z"/>
</svg>
