<?xml version="1.0" encoding="utf-8"?>
<!-- Generator: Adobe Illustrator 16.0.0, SVG Export Plug-In . SVG Version: 6.00 Build 0)  -->
<!DOCTYPE svg PUBLIC "-//W3C//DTD SVG 1.1//EN" "http://www.w3.org/Graphics/SVG/1.1/DTD/svg11.dtd">
<svg version="1.1" id="Layer_1" xmlns="http://www.w3.org/2000/svg" xmlns:xlink="http://www.w3.org/1999/xlink" x="0px" y="0px"
	 width="121.319px" height="259.251px" viewBox="0 0 121.319 259.251" enable-background="new 0 0 121.319 259.251"
	 xml:space="preserve">
<g>
	<path fill="none" d="M116.591,119.592c-22.289-26.74-44.584-53.474-66.873-80.214c-9.598-11.515-19.14-23.075-28.792-34.545
		c-3.999-4.751-9.345-6.021-14.321-3.716c-4.511,2.09-7.056,6.77-6.511,11.871c0.318,2.972,1.932,5.255,3.763,7.451
		c28.911,34.672,57.757,69.398,86.815,103.948c3.216,3.824,3.7,6.004,0.173,10.18c-28.804,34.109-57.282,68.494-85.872,102.784
		c-2.689,3.226-5.356,6.366-4.928,11.036c0.421,4.599,2.733,7.834,6.781,9.73c4.143,1.94,8.251,1.373,11.672-1.6
		c2.367-2.057,4.343-4.587,6.367-7.012c30.519-36.573,61.015-73.166,91.521-109.75c2.462-2.954,5.086-5.814,4.908-10.129
		C121.601,125.473,119.053,122.546,116.591,119.592z"/>
	<path fill-rule="evenodd" clip-rule="evenodd" d="M121.294,129.628c0.306-4.155-2.241-7.082-4.704-10.036
		c-22.289-26.74-44.584-53.474-66.873-80.214c-9.598-11.515-19.14-23.075-28.792-34.545c-3.999-4.751-9.345-6.021-14.321-3.716
		c-4.511,2.09-7.056,6.77-6.511,11.871c0.318,2.972,1.932,5.255,3.763,7.451c28.911,34.672,57.757,69.398,86.815,103.948
		c3.216,3.824,3.7,6.004,0.173,10.18c-28.804,34.109-57.282,68.494-85.872,102.784c-2.689,3.226-5.356,6.366-4.928,11.036
		c0.421,4.599,2.733,7.834,6.781,9.73c4.143,1.94,8.251,1.373,11.672-1.6c2.367-2.057,4.343-4.587,6.367-7.012
		c30.519-36.573,61.015-73.166,91.521-109.75C118.849,136.803,121.473,133.943,121.294,129.628z"/>
</g>
</svg>
