<?xml version="1.0" encoding="utf-8"?>
<!-- Generator: Adobe Illustrator 16.0.0, SVG Export Plug-In . SVG Version: 6.00 Build 0)  -->
<!DOCTYPE svg PUBLIC "-//W3C//DTD SVG 1.1//EN" "http://www.w3.org/Graphics/SVG/1.1/DTD/svg11.dtd">
<svg version="1.1" id="Layer_1" xmlns="http://www.w3.org/2000/svg" xmlns:xlink="http://www.w3.org/1999/xlink" x="0px" y="0px"
	 width="144px" height="140.893px" viewBox="0 0 144 140.893" enable-background="new 0 0 144 140.893" xml:space="preserve">
<g>
	<path fill="#fff" d="M72.065,3.712c-0.268,0.452-0.427,0.658-0.522,0.89c-5.555,13.613-13.267,26.011-21.417,38.173
		c-5.686,8.485-11.639,16.804-16.506,25.812c-4.809,8.899-7.975,18.103-6.766,28.547c2.539,21.922,21.483,39.64,43.487,40.036
		c15.654,0.283,28.503-5.738,38-18.254c6.989-9.212,10.014-19.729,8.799-31.303c-0.836-7.964-4.163-15.081-7.941-21.999
		c-5.979-10.947-13.266-21.069-20.012-31.532C82.923,24.367,76.988,14.466,72.065,3.712z"/>
	<path fill="#fff" fill-rule="evenodd" clip-rule="evenodd" d="M72.065,3.712c4.923,10.754,10.857,20.655,17.122,30.372
		c6.746,10.463,14.033,20.585,20.012,31.532c3.778,6.917,7.105,14.035,7.941,21.999c1.215,11.574-1.81,22.091-8.799,31.303
		c-9.496,12.516-22.346,18.537-38,18.254c-22.004-0.396-40.948-18.114-43.487-40.036c-1.209-10.444,1.957-19.648,6.766-28.547
		c4.867-9.008,10.82-17.328,16.506-25.812c8.15-12.162,15.861-24.56,21.417-38.173C71.639,4.37,71.798,4.164,72.065,3.712z"/>
</g>
</svg>
