<?xml version="1.0" encoding="utf-8"?>
<!-- Generator: Adobe Illustrator 16.0.0, SVG Export Plug-In . SVG Version: 6.00 Build 0)  -->
<!DOCTYPE svg PUBLIC "-//W3C//DTD SVG 1.1//EN" "http://www.w3.org/Graphics/SVG/1.1/DTD/svg11.dtd">
<svg version="1.1" id="Layer_1" xmlns="http://www.w3.org/2000/svg" xmlns:xlink="http://www.w3.org/1999/xlink" x="0px" y="0px"
	 width="234.117px" height="234.14px" viewBox="0 0 234.117 234.14" enable-background="new 0 0 234.117 234.14"
	 xml:space="preserve">
<g>
	<path d="M234.113,48.266c0.333-30.631-22.302-48.059-44.718-48.134C141.087-0.031,92.777-0.06,44.469,0.142
		C20.211,0.244,0.147,20.405,0.089,44.455C-0.029,92.929-0.03,141.406,0.09,189.88c0.058,23.296,19.239,43.18,42.506,43.976
		c13.477,0.461,26.98,0.225,40.471,0.216c36.146-0.023,72.299,0.251,108.439-0.272c22.157-0.321,41.59-19.611,42.088-41.626
		c0.564-24.969,0.13-49.961,0.13-74.942c0.113,0,0.227,0,0.339,0C234.062,94.243,233.862,71.251,234.113,48.266z M191.193,72.868
		c-3.406,4.539-7.339,8.582-11.883,11.975c-1.305,0.974-1.711,1.969-1.706,3.543c0.083,24.66-8.354,46.053-25.293,63.902
		c-14.593,15.375-32.772,23.654-53.813,25.76c-19.397,1.94-37.604-1.783-54.559-11.464c-0.689-0.393-1.363-0.814-2.026-1.249
		c-0.103-0.066-0.113-0.272-0.222-0.562c16.498,1.398,31.397-2.676,45.196-12.91c-6.976-0.541-12.919-2.424-18.093-6.34
		c-5.138-3.889-8.807-8.838-10.961-15.264c4.542,0.631,8.855,0.837,13.613-0.65c-7.039-1.788-12.635-5.041-17.053-10.177
		c-4.611-5.359-7.126-11.562-7.512-18.643c-0.084-1.546,0.215-1.806,1.644-1.11c3.599,1.753,7.42,2.736,11.9,2.998
		C46.78,91.081,43.585,77.529,51.131,61.129c4.485,5.25,8.969,9.721,13.989,13.633C79.222,85.754,95.2,91.931,112.992,93.544
		c2.218,0.201,2.701-0.208,2.337-2.582c-1.949-12.685,4.557-25.395,15.916-31.589c11.304-6.166,25.782-4.716,35.39,3.832
		c2.003,1.782,3.638,2.069,6.098,1.375c5.447-1.536,10.64-3.616,16.092-6.602c-2.457,7.331-6.827,12.519-12.62,16.881
		c1.783-0.311,3.58-0.559,5.345-0.95c1.779-0.395,3.544-0.877,5.284-1.42c1.799-0.562,3.561-1.244,5.592-1.962
		C192.344,71.667,191.666,72.237,191.193,72.868z"/>
</g>
</svg>
